<mxfile host="app.diagrams.net" agent="Mozilla/5.0 (Windows NT 10.0; Win64; x64) AppleWebKit/537.36 (KHTML, like Gecko) Chrome/130.0.0.0 Safari/537.36" version="24.8.4">
  <diagram name="Page-1" id="4ftvQ692paEy3jNhaK7E">
    <mxGraphModel dx="1195" dy="2815" grid="1" gridSize="10" guides="1" tooltips="1" connect="1" arrows="1" fold="1" page="1" pageScale="1" pageWidth="850" pageHeight="1100" math="0" shadow="0">
      <root>
        <mxCell id="0" />
        <mxCell id="1" parent="0" />
        <mxCell id="f7RXGpFbqutlYk8Ezgqi-2" value="Home" style="rounded=1;whiteSpace=wrap;html=1;fontSize=10;fillColor=#9bc6ee;fontFamily=Poppins;" vertex="1" parent="1">
          <mxGeometry x="350" y="-1065" width="70" height="20" as="geometry" />
        </mxCell>
        <mxCell id="f7RXGpFbqutlYk8Ezgqi-3" value="About" style="rounded=1;whiteSpace=wrap;html=1;fontSize=10;fillColor=#9bc6ee;fontFamily=Poppins;" vertex="1" parent="1">
          <mxGeometry x="490" y="-1065" width="70" height="20" as="geometry" />
        </mxCell>
        <mxCell id="f7RXGpFbqutlYk8Ezgqi-4" value="Model Met." style="rounded=1;whiteSpace=wrap;html=1;fontSize=10;fillColor=#9bc6ee;fontFamily=Poppins;" vertex="1" parent="1">
          <mxGeometry x="560" y="-1065" width="70" height="20" as="geometry" />
        </mxCell>
        <mxCell id="f7RXGpFbqutlYk8Ezgqi-5" value="Dataset" style="rounded=1;whiteSpace=wrap;html=1;fontSize=10;fillColor=#9bc6ee;fontFamily=Poppins;" vertex="1" parent="1">
          <mxGeometry x="630" y="-1065" width="70" height="20" as="geometry" />
        </mxCell>
        <mxCell id="f7RXGpFbqutlYk8Ezgqi-6" value="Login/Register" style="rounded=1;whiteSpace=wrap;html=1;fontSize=10;fillColor=#9bc6ee;fontFamily=Poppins;" vertex="1" parent="1">
          <mxGeometry x="700" y="-1065" width="70" height="20" as="geometry" />
        </mxCell>
        <mxCell id="f7RXGpFbqutlYk8Ezgqi-7" value="&lt;font style=&quot;font-size: 10px;&quot;&gt;Logo / Proje İsmi&lt;/font&gt;" style="rounded=1;whiteSpace=wrap;html=1;fillColor=#9bc6ee;fontFamily=Poppins;fontSize=10;" vertex="1" parent="1">
          <mxGeometry x="100" y="-1065" width="80" height="20" as="geometry" />
        </mxCell>
        <mxCell id="f7RXGpFbqutlYk8Ezgqi-8" value="&lt;font style=&quot;font-size: 12px;&quot;&gt;Navbar&lt;/font&gt;&lt;span style=&quot;font-size: 12px; background-color: initial;&quot;&gt;&amp;nbsp;Tasarımı&lt;/span&gt;" style="text;html=1;align=center;verticalAlign=middle;resizable=0;points=[];autosize=1;strokeColor=none;fillColor=none;fontFamily=Poppins;fontSize=12;fontStyle=1" vertex="1" parent="1">
          <mxGeometry x="375" y="-1120" width="120" height="30" as="geometry" />
        </mxCell>
        <mxCell id="f7RXGpFbqutlYk8Ezgqi-9" value="" style="rounded=1;whiteSpace=wrap;html=1;fillColor=none;fontFamily=Poppins;fontSize=10;" vertex="1" parent="1">
          <mxGeometry x="90" y="-1090" width="690" height="70" as="geometry" />
        </mxCell>
        <mxCell id="f7RXGpFbqutlYk8Ezgqi-11" value="Public Results" style="rounded=1;whiteSpace=wrap;html=1;fontSize=10;fillColor=#9bc6ee;fontFamily=Poppins;" vertex="1" parent="1">
          <mxGeometry x="420" y="-1065" width="70" height="20" as="geometry" />
        </mxCell>
        <mxCell id="f7RXGpFbqutlYk8Ezgqi-12" value="Logout" style="rounded=1;whiteSpace=wrap;html=1;fontSize=10;fillColor=#d5e8d4;strokeColor=#82b366;fontFamily=Poppins;" vertex="1" parent="1">
          <mxGeometry x="700" y="-1085" width="70" height="20" as="geometry" />
        </mxCell>
        <mxCell id="f7RXGpFbqutlYk8Ezgqi-13" value="Profile" style="rounded=1;whiteSpace=wrap;html=1;fontSize=10;fillColor=#d5e8d4;strokeColor=#82b366;fontFamily=Poppins;" vertex="1" parent="1">
          <mxGeometry x="630" y="-1045" width="70" height="20" as="geometry" />
        </mxCell>
        <mxCell id="f7RXGpFbqutlYk8Ezgqi-14" value="Upload MRI Image" style="rounded=1;whiteSpace=wrap;html=1;fontFamily=Poppins;fontSize=10;" vertex="1" parent="1">
          <mxGeometry x="120" y="-938.44" width="100" height="40" as="geometry" />
        </mxCell>
        <mxCell id="f7RXGpFbqutlYk8Ezgqi-15" value="Detect" style="rounded=1;html=1;shadow=0;dashed=0;whiteSpace=wrap;fontSize=10;fillColor=#E6E6E6;align=center;strokeColor=#E6E6E6;fontColor=#333333;fontFamily=Poppins;" vertex="1" parent="1">
          <mxGeometry x="130" y="-888.44" width="80" height="16.88" as="geometry" />
        </mxCell>
        <mxCell id="f7RXGpFbqutlYk8Ezgqi-17" value="" style="rounded=1;whiteSpace=wrap;html=1;gradientColor=none;fillColor=none;fontFamily=Poppins;fontSize=10;" vertex="1" parent="1">
          <mxGeometry x="90" y="-1000" width="160" height="190" as="geometry" />
        </mxCell>
        <mxCell id="f7RXGpFbqutlYk8Ezgqi-18" value="&lt;font style=&quot;font-size: 12px;&quot;&gt;&lt;span style=&quot;font-size: 12px;&quot;&gt;Home&lt;/span&gt;&lt;/font&gt;" style="text;html=1;align=center;verticalAlign=middle;resizable=0;points=[];autosize=1;strokeColor=none;fillColor=none;fontFamily=Poppins;fontSize=12;fontStyle=1" vertex="1" parent="1">
          <mxGeometry x="140" y="-990" width="60" height="30" as="geometry" />
        </mxCell>
        <mxCell id="f7RXGpFbqutlYk8Ezgqi-22" value="&lt;font style=&quot;font-size: 12px;&quot;&gt;&lt;span style=&quot;font-size: 12px;&quot;&gt;Results / Profile&lt;/span&gt;&lt;/font&gt;" style="text;html=1;align=center;verticalAlign=middle;resizable=0;points=[];autosize=1;strokeColor=none;fillColor=none;fontFamily=Poppins;fontSize=12;fontStyle=1" vertex="1" parent="1">
          <mxGeometry x="295" y="-990" width="110" height="30" as="geometry" />
        </mxCell>
        <mxCell id="f7RXGpFbqutlYk8Ezgqi-26" value="Register" style="rounded=1;html=1;shadow=0;dashed=0;whiteSpace=wrap;fontSize=10;fillColor=#E6E6E6;align=center;strokeColor=#E6E6E6;fontColor=#333333;fontFamily=Poppins;" vertex="1" parent="1">
          <mxGeometry x="660" y="-785" width="80" height="16.88" as="geometry" />
        </mxCell>
        <mxCell id="f7RXGpFbqutlYk8Ezgqi-27" value="" style="rounded=1;whiteSpace=wrap;html=1;gradientColor=none;fillColor=none;fontFamily=Poppins;fontSize=10;" vertex="1" parent="1">
          <mxGeometry x="620" y="-1005" width="160" height="250" as="geometry" />
        </mxCell>
        <mxCell id="f7RXGpFbqutlYk8Ezgqi-28" value="&lt;font style=&quot;font-size: 12px;&quot;&gt;&lt;span style=&quot;font-size: 12px;&quot;&gt;Register&lt;/span&gt;&lt;/font&gt;" style="text;html=1;align=center;verticalAlign=middle;resizable=0;points=[];autosize=1;strokeColor=none;fillColor=none;fontFamily=Poppins;fontSize=12;fontStyle=1" vertex="1" parent="1">
          <mxGeometry x="665" y="-995" width="70" height="30" as="geometry" />
        </mxCell>
        <mxCell id="f7RXGpFbqutlYk8Ezgqi-30" value="Username" style="rounded=0;whiteSpace=wrap;html=1;fontFamily=Poppins;fontSize=10;" vertex="1" parent="1">
          <mxGeometry x="640" y="-910" width="120" height="20" as="geometry" />
        </mxCell>
        <mxCell id="f7RXGpFbqutlYk8Ezgqi-31" value="Password" style="rounded=0;whiteSpace=wrap;html=1;fontFamily=Poppins;fontSize=10;" vertex="1" parent="1">
          <mxGeometry x="640" y="-845" width="120" height="20" as="geometry" />
        </mxCell>
        <mxCell id="f7RXGpFbqutlYk8Ezgqi-32" value="Confirm Password" style="rounded=0;whiteSpace=wrap;html=1;fontFamily=Poppins;fontSize=10;" vertex="1" parent="1">
          <mxGeometry x="640" y="-815" width="120" height="20" as="geometry" />
        </mxCell>
        <mxCell id="f7RXGpFbqutlYk8Ezgqi-35" value="" style="shape=image;html=1;verticalAlign=top;verticalLabelPosition=bottom;labelBackgroundColor=#ffffff;imageAspect=0;aspect=fixed;image=https://cdn4.iconfinder.com/data/icons/e-commerce-icon-set/48/Username_2-128.png;fontFamily=Poppins;fontSize=10;" vertex="1" parent="1">
          <mxGeometry x="691" y="-965" width="18" height="18" as="geometry" />
        </mxCell>
        <mxCell id="f7RXGpFbqutlYk8Ezgqi-37" value="Full Name" style="rounded=0;whiteSpace=wrap;html=1;fontFamily=Poppins;fontSize=10;" vertex="1" parent="1">
          <mxGeometry x="640" y="-943.44" width="120" height="20" as="geometry" />
        </mxCell>
        <mxCell id="f7RXGpFbqutlYk8Ezgqi-38" value="Email" style="rounded=0;whiteSpace=wrap;html=1;fontFamily=Poppins;fontSize=10;" vertex="1" parent="1">
          <mxGeometry x="640" y="-878.12" width="120" height="20" as="geometry" />
        </mxCell>
        <mxCell id="f7RXGpFbqutlYk8Ezgqi-41" value="Login" style="rounded=1;html=1;shadow=0;dashed=0;whiteSpace=wrap;fontSize=10;fillColor=#E6E6E6;align=center;strokeColor=#E6E6E6;fontColor=#333333;fontFamily=Poppins;" vertex="1" parent="1">
          <mxGeometry x="485" y="-871.5600000000001" width="80" height="16.88" as="geometry" />
        </mxCell>
        <mxCell id="f7RXGpFbqutlYk8Ezgqi-42" value="" style="rounded=1;whiteSpace=wrap;html=1;gradientColor=none;fillColor=none;fontFamily=Poppins;fontSize=10;" vertex="1" parent="1">
          <mxGeometry x="445" y="-1000" width="160" height="190" as="geometry" />
        </mxCell>
        <mxCell id="f7RXGpFbqutlYk8Ezgqi-43" value="&lt;font style=&quot;font-size: 12px;&quot;&gt;&lt;span style=&quot;font-size: 12px;&quot;&gt;Login&lt;/span&gt;&lt;/font&gt;" style="text;html=1;align=center;verticalAlign=middle;resizable=0;points=[];autosize=1;strokeColor=none;fillColor=none;fontFamily=Poppins;fontSize=12;fontStyle=1" vertex="1" parent="1">
          <mxGeometry x="495" y="-990" width="60" height="30" as="geometry" />
        </mxCell>
        <mxCell id="f7RXGpFbqutlYk8Ezgqi-44" value="" style="shape=image;html=1;verticalAlign=top;verticalLabelPosition=bottom;labelBackgroundColor=#ffffff;imageAspect=0;aspect=fixed;image=https://cdn4.iconfinder.com/data/icons/e-commerce-icon-set/48/Username-128.png;fontFamily=Poppins;fontSize=10;" vertex="1" parent="1">
          <mxGeometry x="516" y="-960" width="18" height="18" as="geometry" />
        </mxCell>
        <mxCell id="f7RXGpFbqutlYk8Ezgqi-45" value="Username" style="rounded=0;whiteSpace=wrap;html=1;fontFamily=Poppins;fontSize=10;" vertex="1" parent="1">
          <mxGeometry x="465" y="-938.44" width="120" height="20" as="geometry" />
        </mxCell>
        <mxCell id="f7RXGpFbqutlYk8Ezgqi-46" value="Password" style="rounded=0;whiteSpace=wrap;html=1;fontFamily=Poppins;fontSize=10;" vertex="1" parent="1">
          <mxGeometry x="465" y="-905" width="120" height="20" as="geometry" />
        </mxCell>
        <mxCell id="f7RXGpFbqutlYk8Ezgqi-117" value="" style="childLayout=tableLayout;recursiveResize=0;shadow=0;fillColor=none;fontSize=10;fontFamily=Poppins;" vertex="1" parent="1">
          <mxGeometry x="270" y="-952.5" width="160" height="105" as="geometry" />
        </mxCell>
        <mxCell id="f7RXGpFbqutlYk8Ezgqi-118" value="" style="shape=tableRow;horizontal=0;startSize=0;swimlaneHead=0;swimlaneBody=0;top=0;left=0;bottom=0;right=0;dropTarget=0;collapsible=0;recursiveResize=0;expand=0;fontStyle=0;fillColor=none;strokeColor=inherit;fontSize=10;fontFamily=Poppins;" vertex="1" parent="f7RXGpFbqutlYk8Ezgqi-117">
          <mxGeometry width="160" height="35" as="geometry" />
        </mxCell>
        <mxCell id="f7RXGpFbqutlYk8Ezgqi-119" value="Label" style="connectable=0;recursiveResize=0;strokeColor=inherit;fillColor=none;align=center;whiteSpace=wrap;html=1;fontSize=10;fontFamily=Poppins;" vertex="1" parent="f7RXGpFbqutlYk8Ezgqi-118">
          <mxGeometry width="53" height="35" as="geometry">
            <mxRectangle width="53" height="35" as="alternateBounds" />
          </mxGeometry>
        </mxCell>
        <mxCell id="f7RXGpFbqutlYk8Ezgqi-120" value="Confidence&amp;nbsp;" style="connectable=0;recursiveResize=0;strokeColor=inherit;fillColor=none;align=center;whiteSpace=wrap;html=1;fontSize=9;fontFamily=Poppins;" vertex="1" parent="f7RXGpFbqutlYk8Ezgqi-118">
          <mxGeometry x="53" width="54" height="35" as="geometry">
            <mxRectangle width="54" height="35" as="alternateBounds" />
          </mxGeometry>
        </mxCell>
        <mxCell id="f7RXGpFbqutlYk8Ezgqi-121" value="Detect Time" style="connectable=0;recursiveResize=0;strokeColor=inherit;fillColor=none;align=center;whiteSpace=wrap;html=1;fontSize=10;fontFamily=Poppins;" vertex="1" parent="f7RXGpFbqutlYk8Ezgqi-118">
          <mxGeometry x="107" width="53" height="35" as="geometry">
            <mxRectangle width="53" height="35" as="alternateBounds" />
          </mxGeometry>
        </mxCell>
        <mxCell id="f7RXGpFbqutlYk8Ezgqi-122" style="shape=tableRow;horizontal=0;startSize=0;swimlaneHead=0;swimlaneBody=0;top=0;left=0;bottom=0;right=0;dropTarget=0;collapsible=0;recursiveResize=0;expand=0;fontStyle=0;fillColor=none;strokeColor=inherit;fontSize=10;fontFamily=Poppins;" vertex="1" parent="f7RXGpFbqutlYk8Ezgqi-117">
          <mxGeometry y="35" width="160" height="35" as="geometry" />
        </mxCell>
        <mxCell id="f7RXGpFbqutlYk8Ezgqi-123" value="No Tumor" style="connectable=0;recursiveResize=0;strokeColor=inherit;fillColor=none;align=center;whiteSpace=wrap;html=1;fontSize=10;fontFamily=Poppins;" vertex="1" parent="f7RXGpFbqutlYk8Ezgqi-122">
          <mxGeometry width="53" height="35" as="geometry">
            <mxRectangle width="53" height="35" as="alternateBounds" />
          </mxGeometry>
        </mxCell>
        <mxCell id="f7RXGpFbqutlYk8Ezgqi-124" value="%95" style="connectable=0;recursiveResize=0;strokeColor=inherit;fillColor=none;align=center;whiteSpace=wrap;html=1;fontSize=10;fontFamily=Poppins;" vertex="1" parent="f7RXGpFbqutlYk8Ezgqi-122">
          <mxGeometry x="53" width="54" height="35" as="geometry">
            <mxRectangle width="54" height="35" as="alternateBounds" />
          </mxGeometry>
        </mxCell>
        <mxCell id="f7RXGpFbqutlYk8Ezgqi-125" value="1.2" style="connectable=0;recursiveResize=0;strokeColor=inherit;fillColor=none;align=center;whiteSpace=wrap;html=1;fontSize=10;fontFamily=Poppins;" vertex="1" parent="f7RXGpFbqutlYk8Ezgqi-122">
          <mxGeometry x="107" width="53" height="35" as="geometry">
            <mxRectangle width="53" height="35" as="alternateBounds" />
          </mxGeometry>
        </mxCell>
        <mxCell id="f7RXGpFbqutlYk8Ezgqi-126" style="shape=tableRow;horizontal=0;startSize=0;swimlaneHead=0;swimlaneBody=0;top=0;left=0;bottom=0;right=0;dropTarget=0;collapsible=0;recursiveResize=0;expand=0;fontStyle=0;fillColor=none;strokeColor=inherit;fontSize=10;fontFamily=Poppins;" vertex="1" parent="f7RXGpFbqutlYk8Ezgqi-117">
          <mxGeometry y="70" width="160" height="35" as="geometry" />
        </mxCell>
        <mxCell id="f7RXGpFbqutlYk8Ezgqi-127" value="Glioma Tumor" style="connectable=0;recursiveResize=0;strokeColor=inherit;fillColor=none;align=center;whiteSpace=wrap;html=1;fontSize=10;fontFamily=Poppins;" vertex="1" parent="f7RXGpFbqutlYk8Ezgqi-126">
          <mxGeometry width="53" height="35" as="geometry">
            <mxRectangle width="53" height="35" as="alternateBounds" />
          </mxGeometry>
        </mxCell>
        <mxCell id="f7RXGpFbqutlYk8Ezgqi-128" value="%98" style="connectable=0;recursiveResize=0;strokeColor=inherit;fillColor=none;align=center;whiteSpace=wrap;html=1;fontSize=10;fontFamily=Poppins;" vertex="1" parent="f7RXGpFbqutlYk8Ezgqi-126">
          <mxGeometry x="53" width="54" height="35" as="geometry">
            <mxRectangle width="54" height="35" as="alternateBounds" />
          </mxGeometry>
        </mxCell>
        <mxCell id="f7RXGpFbqutlYk8Ezgqi-129" value="0.5" style="connectable=0;recursiveResize=0;strokeColor=inherit;fillColor=none;align=center;whiteSpace=wrap;html=1;fontSize=10;fontFamily=Poppins;" vertex="1" parent="f7RXGpFbqutlYk8Ezgqi-126">
          <mxGeometry x="107" width="53" height="35" as="geometry">
            <mxRectangle width="53" height="35" as="alternateBounds" />
          </mxGeometry>
        </mxCell>
        <mxCell id="f7RXGpFbqutlYk8Ezgqi-130" value="" style="rounded=1;whiteSpace=wrap;html=1;gradientColor=none;fillColor=none;fontFamily=Poppins;fontSize=9;" vertex="1" parent="1">
          <mxGeometry x="262.5" y="-1000" width="175" height="190" as="geometry" />
        </mxCell>
        <mxCell id="f7RXGpFbqutlYk8Ezgqi-132" value="" style="shape=image;html=1;verticalAlign=top;verticalLabelPosition=bottom;labelBackgroundColor=#ffffff;imageAspect=0;aspect=fixed;image=https://cdn2.iconfinder.com/data/icons/boxicons-solid-vol-1/24/bxs-color-fill-128.png;fontFamily=Poppins;fontSize=10;" vertex="1" parent="1">
          <mxGeometry x="90" y="-783" width="28" height="28" as="geometry" />
        </mxCell>
        <mxCell id="f7RXGpFbqutlYk8Ezgqi-133" value="&lt;font style=&quot;font-size: 12px;&quot;&gt;&lt;span style=&quot;font-size: 12px;&quot;&gt;Color Palet&lt;/span&gt;&lt;/font&gt;" style="text;html=1;align=center;verticalAlign=middle;resizable=0;points=[];autosize=1;strokeColor=none;fillColor=none;fontFamily=Poppins;fontSize=12;fontStyle=1" vertex="1" parent="1">
          <mxGeometry x="120" y="-785" width="90" height="30" as="geometry" />
        </mxCell>
        <mxCell id="f7RXGpFbqutlYk8Ezgqi-134" value="" style="shape=image;verticalLabelPosition=bottom;labelBackgroundColor=default;verticalAlign=top;aspect=fixed;imageAspect=0;image=data:image/png,iVBORw0KGgoAAAANSUhEUgAABkAAAASwCAYAAACjAYaXAAAABmJLR0QA/wD/AP+gvaeTAAAgAElEQVR4nOzZUQlCURQAQTWDICg8DXGjWcoMpjCGKbSEcGCdSbD/u19rfXYAf2i73qYTAEY8L4/pBIARr/t7OgFgxPl0nE4AGHGYDgAAAAAAAPg1AwQAAAAAAMgxQAAAAAAAgBwDBAAAAAAAyDFAAAAAAACAHAMEAAAAAADIMUAAAAAAAIAcAwQAAAAAAMgxQAAAAAAAgBwDBAAAAAAAyDFAAAAAAACAHAMEAAAAAADIMUAAAAAAAIAcAwQAAAAAAMgxQAAAAAAAgBwDBAAAAAAAyDFAAAAAAACAHAMEAAAAAADIMUAAAAAAAIAcAwQAAAAAAMgxQAAAAAAAgBwDBAAAAAAAyDFAAAAAAACAHAMEAAAAAADIMUAAAAAAAIAcAwQAAAAAAMgxQAAAAAAAgBwDBAAAAAAAyDFAAAAAAACAHAMEAAAAAADIMUAAAAAAAIAcAwQAAAAAAMgxQAAAAAAAgBwDBAAAAAAAyDFAAAAAAACAHAMEAAAAAADIMUAAAAAAAIAcAwQAAAAAAMgxQAAAAAAAgBwDBAAAAAAAyDFAAAAAAACAHAMEAAAAAADIMUAAAAAAAIAcAwQAAAAAAMgxQAAAAAAAgBwDBAAAAAAAyDFAAAAAAACAHAMEAAAAAADIMUAAAAAAAIAcAwQAAAAAAMgxQAAAAAAAgBwDBAAAAAAAyDFAAAAAAACAHAMEAAAAAADIMUAAAAAAAIAcAwQAAAAAAMgxQAAAAAAAgBwDBAAAAAAAyDFAAAAAAACAHAMEAAAAAADIMUAAAAAAAIAcAwQAAAAAAMgxQAAAAAAAgBwDBAAAAAAAyDFAAAAAAACAHAMEAAAAAADIMUAAAAAAAIAcAwQAAAAAAMgxQAAAAAAAgBwDBAAAAAAAyDFAAAAAAACAHAMEAAAAAADIMUAAAAAAAIAcAwQAAAAAAMgxQAAAAAAAgBwDBAAAAAAAyDFAAAAAAACAHAMEAAAAAADIMUAAAAAAAIAcAwQAAAAAAMgxQAAAAAAAgBwDBAAAAAAAyDFAAAAAAACAHAMEAAAAAADIMUAAAAAAAIAcAwQAAAAAAMgxQAAAAAAAgBwDBAAAAAAAyDFAAAAAAACAHAMEAAAAAADIMUAAAAAAAIAcAwQAAAAAAMgxQAAAAAAAgBwDBAAAAAAAyDFAAAAAAACAHAMEAAAAAADIMUAAAAAAAIAcAwQAAAAAAMgxQAAAAAAAgBwDBAAAAAAAyDFAAAAAAACAHAMEAAAAAADIMUAAAAAAAIAcAwQAAAAAAMgxQAAAAAAAgBwDBAAAAAAAyDFAAAAAAACAHAMEAAAAAADIMUAAAAAAAIAcAwQAAAAAAMgxQAAAAAAAgBwDBAAAAAAAyDFAAAAAAACAHAMEAAAAAADIMUAAAAAAAIAcAwQAAAAAAMgxQAAAAAAAgBwDBAAAAAAAyDFAAAAAAACAHAMEAAAAAADIMUAAAAAAAIAcAwQAAAAAAMgxQAAAAAAAgBwDBAAAAAAAyDFAAAAAAACAHAMEAAAAAADIMUAAAAAAAIAcAwQAAAAAAMgxQAAAAAAAgBwDBAAAAAAAyDFAAAAAAACAHAMEAAAAAADIMUAAAAAAAIAcAwQAAAAAAMgxQAAAAAAAgBwDBAAAAAAAyDFAAAAAAACAHAMEAAAAAADIMUAAAAAAAIAcAwQAAAAAAMgxQAAAAAAAgBwDBAAAAAAAyDFAAAAAAACAHAMEAAAAAADIMUAAAAAAAIAcAwQAAAAAAMgxQAAAAAAAgBwDBAAAAAAAyDFAAAAAAACAHAMEAAAAAADIMUAAAAAAAIAcAwQAAAAAAMgxQAAAAAAAgBwDBAAAAAAAyDFAAAAAAACAHAMEAAAAAADIMUAAAAAAAIAcAwQAAAAAAMgxQAAAAAAAgBwDBAAAAAAAyDFAAAAAAACAHAMEAAAAAADIMUAAAAAAAIAcAwQAAAAAAMgxQAAAAAAAgBwDBAAAAAAAyDFAAAAAAACAHAMEAAAAAADIMUAAAAAAAIAcAwQAAAAAAMgxQAAAAAAAgBwDBAAAAAAAyDFAAAAAAACAHAMEAAAAAADIMUAAAAAAAIAcAwQAAAAAAMgxQAAAAAAAgBwDBAAAAAAAyDFAAAAAAACAHAMEAAAAAADIMUAAAAAAAIAcAwQAAAAAAMgxQAAAAAAAgBwDBAAAAAAAyDFAAAAAAACAHAMEAAAAAADIMUAAAAAAAIAcAwQAAAAAAMgxQAAAAAAAgBwDBAAAAAAAyDFAAAAAAACAHAMEAAAAAADIMUAAAAAAAIAcAwQAAAAAAMgxQAAAAAAAgBwDBAAAAAAAyDFAAAAAAACAHAMEAAAAAADIMUAAAAAAAIAcAwQAAAAAAMgxQAAAAAAAgBwDBAAAAAAAyDFAAAAAAACAHAMEAAAAAADIMUAAAAAAAIAcAwQAAAAAAMgxQAAAAAAAgBwDBAAAAAAAyDFAAAAAAACAHAMEAAAAAADIMUAAAAAAAIAcAwQAAAAAAMgxQAAAAAAAgBwDBAAAAAAAyDFAAAAAAACAHAMEAAAAAADIMUAAAAAAAIAcAwQAAAAAAMgxQAAAAAAAgBwDBAAAAAAAyDFAAAAAAACAHAMEAAAAAADIMUAAAAAAAIAcAwQAAAAAAMgxQAAAAAAAgBwDBAAAAAAAyDFAAAAAAACAHAMEAAAAAADIMUAAAAAAAIAcAwQAAAAAAMgxQAAAAAAAgBwDBAAAAAAAyDFAAAAAAACAHAMEAAAAAADIMUAAAAAAAIAcAwQAAAAAAMgxQAAAAAAAgBwDBAAAAAAAyDFAAAAAAACAHAMEAAAAAADIMUAAAAAAAIAcAwQAAAAAAMgxQAAAAAAAgBwDBAAAAAAAyDFAAAAAAACAHAMEAAAAAADIMUAAAAAAAIAcAwQAAAAAAMgxQAAAAAAAgBwDBAAAAAAAyDFAAAAAAACAHAMEAAAAAADIMUAAAAAAAIAcAwQAAAAAAMgxQAAAAAAAgBwDBAAAAAAAyDFAAAAAAACAHAMEAAAAAADIMUAAAAAAAIAcAwQAAAAAAMgxQAAAAAAAgBwDBAAAAAAAyDFAAAAAAACAHAMEAAAAAADIMUAAAAAAAIAcAwQAAAAAAMgxQAAAAAAAgBwDBAAAAAAAyDFAAAAAAACAHAMEAAAAAADIMUAAAAAAAIAcAwQAAAAAAMgxQAAAAAAAgBwDBAAAAAAAyDFAAAAAAACAHAMEAAAAAADIMUAAAAAAAIAcAwQAAAAAAMgxQAAAAAAAgBwDBAAAAAAAyDFAAAAAAACAHAMEAAAAAADIMUAAAAAAAIAcAwQAAAAAAMgxQAAAAAAAgBwDBAAAAAAAyDFAAAAAAACAHAMEAAAAAADIMUAAAAAAAIAcAwQAAAAAAMgxQAAAAAAAgBwDBAAAAAAAyDFAAAAAAACAHAMEAAAAAADIMUAAAAAAAIAcAwQAAAAAAMgxQAAAAAAAgBwDBAAAAAAAyDFAAAAAAACAHAMEAAAAAADIMUAAAAAAAIAcAwQAAAAAAMgxQAAAAAAAgBwDBAAAAAAAyDFAAAAAAACAHAMEAAAAAADIMUAAAAAAAIAcAwQAAAAAAMgxQAAAAAAAgBwDBAAAAAAAyDFAAAAAAACAHAMEAAAAAADIMUAAAAAAAIAcAwQAAAAAAMgxQAAAAAAAgBwDBAAAAAAAyDFAAAAAAACAHAMEAAAAAADIMUAAAAAAAIAcAwQAAAAAAMgxQAAAAAAAgBwDBAAAAAAAyDFAAAAAAACAHAMEAAAAAADIMUAAAAAAAIAcAwQAAAAAAMgxQAAAAAAAgBwDBAAAAAAAyDFAAAAAAACAHAMEAAAAAADIMUAAAAAAAIAcAwQAAAAAAMgxQAAAAAAAgBwDBAAAAAAAyDFAAAAAAACAHAMEAAAAAADIMUAAAAAAAIAcAwQAAAAAAMgxQAAAAAAAgBwDBAAAAAAAyDFAAAAAAACAHAMEAAAAAADIMUAAAAAAAIAcAwQAAAAAAMgxQAAAAAAAgBwDBAAAAAAAyDFAAAAAAACAHAMEAAAAAADIMUAAAAAAAIAcAwQAAAAAAMgxQAAAAAAAgBwDBAAAAAAAyDFAAAAAAACAHAMEAAAAAADIMUAAAAAAAIAcAwQAAAAAAMgxQAAAAAAAgBwDBAAAAAAAyDFAAAAAAACAHAMEAAAAAADIMUAAAAAAAIAcAwQAAAAAAMgxQAAAAAAAgBwDBAAAAAAAyDFAAAAAAACAHAMEAAAAAADIMUAAAAAAAIAcAwQAAAAAAMgxQAAAAAAAgBwDBAAAAAAAyDFAAAAAAACAHAMEAAAAAADIMUAAAAAAAIAcAwQAAAAAAMgxQAAAAAAAgBwDBAAAAAAAyDFAAAAAAACAHAMEAAAAAADIMUAAAAAAAIAcAwQAAAAAAMgxQAAAAAAAgBwDBAAAAAAAyDFAAAAAAACAHAMEAAAAAADIMUAAAAAAAIAcAwQAAAAAAMgxQAAAAAAAgBwDBAAAAAAAyDFAAAAAAACAHAMEAAAAAADIMUAAAAAAAIAcAwQAAAAAAMgxQAAAAAAAgBwDBAAAAAAAyDFAAAAAAACAHAMEAAAAAADIMUAAAAAAAIAcAwQAAAAAAMgxQAAAAAAAgBwDBAAAAAAAyDFAAAAAAACAHAMEAAAAAADIMUAAAAAAAIAcAwQAAAAAAMgxQAAAAAAAgBwDBAAAAAAAyDFAAAAAAACAHAMEAAAAAADIMUAAAAAAAIAcAwQAAAAAAMgxQAAAAAAAgBwDBAAAAAAAyDFAAAAAAACAHAMEAAAAAADIMUAAAAAAAIAcAwQAAAAAAMgxQAAAAAAAgBwDBAAAAAAAyDFAAAAAAACAHAMEAAAAAADIMUAAAAAAAIAcAwQAAAAAAMgxQAAAAAAAgBwDBAAAAAAAyDFAAAAAAACAHAMEAAAAAADIMUAAAAAAAIAcAwQAAAAAAMgxQAAAAAAAgBwDBAAAAAAAyDFAAAAAAACAHAMEAAAAAADIMUAAAAAAAIAcAwQAAAAAAMgxQAAAAAAAgBwDBAAAAAAAyDFAAAAAAACAHAMEAAAAAADIMUAAAAAAAIAcAwQAAAAAAMgxQAAAAAAAgBwDBAAAAAAAyDFAAAAAAACAHAMEAAAAAADIMUAAAAAAAIAcAwQAAAAAAMgxQAAAAAAAgBwDBAAAAAAAyDFAAAAAAACAHAMEAAAAAADIMUAAAAAAAIAcAwQAAAAAAMgxQAAAAAAAgBwDBAAAAAAAyDFAAAAAAACAHAMEAAAAAADIMUAAAAAAAIAcAwQAAAAAAMgxQAAAAAAAgBwDBAAAAAAAyDFAAAAAAACAHAMEAAAAAADIMUAAAAAAAIAcAwQAAAAAAMgxQAAAAAAAgBwDBAAAAAAAyDFAAAAAAACAHAMEAAAAAADIMUAAAAAAAIAcAwQAAAAAAMgxQAAAAAAAgBwDBAAAAAAAyDFAAAAAAACAHAMEAAAAAADIMUAAAAAAAIAcAwQAAAAAAMgxQAAAAAAAgBwDBAAAAAAAyDFAAAAAAACAHAMEAAAAAADIMUAAAAAAAIAcAwQAAAAAAMgxQAAAAAAAgBwDBAAAAAAAyDFAAAAAAACAHAMEAAAAAADIMUAAAAAAAIAcAwQAAAAAAMgxQAAAAAAAgBwDBAAAAAAAyDFAAAAAAACAHAMEAAAAAADIMUAAAAAAAIAcAwQAAAAAAMgxQAAAAAAAgBwDBAAAAAAAyDFAAAAAAACAHAMEAAAAAADIMUAAAAAAAIAcAwQAAAAAAMgxQAAAAAAAgBwDBAAAAAAAyDFAAAAAAACAHAMEAAAAAADIMUAAAAAAAIAcAwQAAAAAAMgxQAAAAAAAgBwDBAAAAAAAyDFAAAAAAACAHAMEAAAAAADIMUAAAAAAAIAcAwQAAAAAAMgxQAAAAAAAgBwDBAAAAAAAyDFAAAAAAACAHAMEAAAAAADIMUAAAAAAAIAcAwQAAAAAAMgxQAAAAAAAgBwDBAAAAAAAyDFAAAAAAACAHAMEAAAAAADIMUAAAAAAAIAcAwQAAAAAAMgxQAAAAAAAgBwDBAAAAAAAyDFAAAAAAACAHAMEAAAAAADIMUAAAAAAAIAcAwQAAAAAAMgxQAAAAAAAgBwDBAAAAAAAyDFAAAAAAACAHAMEAAAAAADIMUAAAAAAAIAcAwQAAAAAAMgxQAAAAAAAgBwDBAAAAAAAyDFAAAAAAACAHAMEAAAAAADIMUAAAAAAAIAcAwQAAAAAAMgxQAAAAAAAgBwDBAAAAAAAyDFAAAAAAACAHAMEAAAAAADIMUAAAAAAAIAcAwQAAAAAAMgxQAAAAAAAgBwDBAAAAAAAyDFAAAAAAACAHAMEAAAAAADIMUAAAAAAAIAcAwQAAAAAAMgxQAAAAAAAgBwDBAAAAAAAyDFAAAAAAACAHAMEAAAAAADIMUAAAAAAAIAcAwQAAAAAAMgxQAAAAAAAgBwDBAAAAAAAyDFAAAAAAACAHAMEAAAAAADIMUAAAAAAAIAcAwQAAAAAAMgxQAAAAAAAgBwDBAAAAAAAyDFAAAAAAACAHAMEAAAAAADIMUAAAAAAAIAcAwQAAAAAAMgxQAAAAAAAgBwDBAAAAAAAyDFAAAAAAACAHAMEAAAAAADIMUAAAAAAAIAcAwQAAAAAAMgxQAAAAAAAgBwDBAAAAAAAyDFAAAAAAACAHAMEAAAAAADIMUAAAAAAAIAcAwQAAAAAAMgxQAAAAAAAgBwDBAAAAAAAyDFAAAAAAACAHAMEAAAAAADIMUAAAAAAAIAcAwQAAAAAAMgxQAAAAAAAgBwDBAAAAAAAyDFAAAAAAACAHAMEAAAAAADIMUAAAAAAAIAcAwQAAAAAAMgxQAAAAAAAgBwDBAAAAAAAyDFAAAAAAACAHAMEAAAAAADIMUAAAAAAAIAcAwQAAAAAAMgxQAAAAAAAgBwDBAAAAAAAyDFAAAAAAACAHAMEAAAAAADIMUAAAAAAAIAcAwQAAAAAAMgxQAAAAAAAgBwDBAAAAAAAyDFAAAAAAACAHAMEAAAAAADIMUAAAAAAAIAcAwQAAAAAAMgxQAAAAAAAgBwDBAAAAAAAyDFAAAAAAACAHAMEAAAAAADIMUAAAAAAAIAcAwQAAAAAAMgxQAAAAAAAgBwDBAAAAAAAyDFAAAAAAACAHAMEAAAAAADIMUAAAAAAAIAcAwQAAAAAAMgxQAAAAAAAgBwDBAAAAAAAyDFAAAAAAACAHAMEAAAAAADIMUAAAAAAAIAcAwQAAAAAAMgxQAAAAAAAgBwDBAAAAAAAyDFAAAAAAACAHAMEAAAAAADIMUAAAAAAAIAcAwQAAAAAAMgxQAAAAAAAgBwDBAAAAAAAyDFAAAAAAACAHAMEAAAAAADIMUAAAAAAAIAcAwQAAAAAAMgxQAAAAAAAgBwDBAAAAAAAyDFAAAAAAACAHAMEAAAAAADIMUAAAAAAAIAcAwQAAAAAAMgxQAAAAAAAgBwDBAAAAAAAyDFAAAAAAACAHAMEAODL3r2HWz3lfwD/7FM5pespqdwSNUTGoCRhMDJD7kliJiMhmtzGGJHBuIz7ZZTbMJSubg1iupjxawwNUVQjRkKUSXS/1zn794dxajtdTs7e59T3vF7P0/Octb5rrfPZz+M59t7v73ctAAAAIHEEIAAAAAAAQOIIQAAAAAAAgMQRgAAAAAAAAIkjAAEAAAAAABJHAAIAAAAAACSOAAQAAAAAAEgcAQgAAAAAAJA4AhAAAAAAACBxBCAAAAAAAEDiCEAAAAAAAIDEEYAAAAAAAACJIwABAAAAAAASRwACAAAAAAAkjgAEAAAAAABIHAEIAAAAAACQOAIQAAAAAAAgcQQgAAAAAABA4ghAAAAAAACAxBGAAAAAAAAAiSMAAQAAAAAAEkcAAgAAAAAAJI4ABAAAAAAASBwBCAAAAAAAkDgCEAAAAAAAIHEEIAAAAAAAQOIIQAAAAAAAgMQRgAAAAAAAAIkjAAEAAAAAABJHAAIAAAAAACSOAAQAAAAAAEgcAQgAAAAAAJA4AhAAAAAAACBxBCAAAAAAAEDiCEAAAAAAAIDEEYAAAAAAAACJIwABAAAAAAASRwACAAAAAAAkjgAEAAAAAABIHAEIAAAAAACQOAIQAAAAAAAgcQQgAAAAAABA4ghAAAAAAACAxBGAAAAAAAAAiSMAAQAAAAAAEkcAAgAAAAAAJI4ABAAAAAAASBwBCAAAAAAAkDgCEAAAAAAAIHEEIAAAAAAAQOIIQAAAAAAAgMQRgAAAAAAAAIkjAAEAAAAAABJHAAIAAAAAACSOAAQAAAAAAEgcAQgAAAAAAJA4AhAAAAAAACBxBCAAAAAAAEDiCEAAAAAAAIDEEYAAAAAAAACJIwABAAAAAAASRwACAAAAAAAkjgAEAAAAAABIHAEIAAAAAACQOAIQAAAAAAAgcQQgAAAAAABA4ghAAAAAAACAxBGAAAAAAAAAiSMAAQAAAAAAEkcAAgAAAAAAJI4ABAAAAAAASBwBCAAAAAAAkDgCEAAAAAAAIHEEIAAAAAAAQOIIQAAAAAAAgMQRgAAAAAAAAIkjAAEAAAAAABJHAAIAAAAAACSOAAQAAAAAAEgcAQgAAAAAAJA4AhAAAAAAACBxBCAAAAAAAEDiCEAAAAAAAIDEEYAAAAAAAACJIwABAAAAAAASRwACAAAAAAAkjgAEAAAAAABIHAEIAAAAAACQOAIQAAAAAAAgcQQgAAAAAABA4ghAAAAAAACAxBGAAAAAAAAAiSMAAQAAAAAAEkcAAgAAAAAAJI4ABAAAAAAASBwBCAAAAAAAkDgCEAAAAAAAIHEEIAAAAAAAQOIIQAAAAAAAgMQRgAAAAAAAAIkjAAEAAAAAABJHAAIAAAAAACSOAAQAAAAAAEgcAQgAAAAAAJA4AhAAAAAAACBxBCAAAAAAAEDiCEAAAAAAAIDEEYAAAAAAAACJIwABAAAAAAASRwACAAAAAAAkjgAEAAAAAABIHAEIAAAAAACQOAIQAAAAAAAgcQQgAAAAAABA4ghAAAAAAACAxBGAAAAAAAAAiSMAAQAAAAAAEkcAAgAAAAAAJI4ABAAAAAAASBwBCAAAAAAAkDgCEAAAAAAAIHEEIAAAAAAAQOIIQAAAAAAAgMQRgAAAAAAAAIkjAAEAAAAAABJHAAIAAAAAACSOAAQAAAAAAEgcAQgAAAAAAJA4AhAAAAAAACBxBCAAAAAAAEDiCEAAAAAAAIDEEYAAAAAAAACJIwABAAAAAAASRwACAAAAAAAkjgAEAAAAAABIHAEIAAAAAACQOAIQAAAAAAAgcQQgAAAAAABA4ghAAAAAAACAxBGAAAAAAAAAiSMAAQAAAAAAEkcAAgAAAAAAJI4ABAAAAAAASBwBCAAAAAAAkDgCEAAAAAAAIHEEIAAAAAAAQOIIQAAAAAAAgMQRgAAAAAAAAIkjAAEAAAAAABJHAAIAAAAAACSOAAQAAAAAAEgcAQgAAAAAAJA4AhAAAAAAACBxBCAAAAAAAEDiCEAAAAAAAIDEEYAAAAAAAACJIwABAAAAAAASRwACAAAAAAAkjgAEAAAAAABIHAEIAAAAAACQOAIQAAAAAAAgcQQgAAAAAABA4ghAAAAAAACAxBGAAAAAAAAAiSMAAQAAAAAAEkcAAgAAAAAAJI4ABAAAAAAASBwBCAAAAAAAkDgCEAAAAAAAIHEEIAAAAAAAQOIIQAAAAAAAgMQRgAAAAAAAAIkjAAEAAAAAABJHAAIAAAAAACSOAAQAAAAAAEgcAQgAAAAAAJA4AhAAAAAAACBxBCAAAAAAAEDiCEAAAAAAAIDEEYAAAAAAAACJIwABAAAAAAASRwACAAAAAAAkjgAEAAAAAABIHAEIAAAAAACQOAIQAAAAAAAgcQQgAAAAAABA4ghAAAAAAACAxBGAAAAAAAAAiSMAAQAAAAAAEkcAAgAAAAAAJI4ABAAAAAAASBwBCAAAAAAAkDgCEAAAAAAAIHEEIAAAAAAAQOIIQAAAAAAAgMQRgAAAAAAAAIkjAAEAAAAAABJHAAIAAAAAACSOAAQAAAAAAEgcAQgAAAAAAJA4AhAAAAAAACBxBCAAAAAAAEDiCEAAAAAAAIDEEYAAAAAAAACJIwABAAAAAAASRwACAAAAAAAkjgAEAAAAAABIHAEIAAAAAACQOAIQAAAAAAAgcQQgAAAAAABA4ghAAAAAAACAxBGAAAAAAAAAiSMAAQAAAAAAEkcAAgAAAAAAJI4ABAAAAAAASBwBCAAAAAAAkDgCEAAAAAAAIHEEIAAAAAAAQOIIQAAAAAAAgMQRgAAAAAAAAIkjAAEAAAAAABJHAAIAAAAAACSOAAQAAAAAAEgcAQgAAAAAAJA4AhAAAAAAACBxBCAAAAAAAEDiCEAAAAAAAIDEEYAAAAAAAACJIwABAAAAAAASRwACAAAAAAAkjgAEAAAAAABIHAEIAAAAAACQOAIQAAAAAAAgcQQgAAAAAABA4ghAAAAAAACAxBGAAAAAAAAAiSMAAQAAAAAAEkcAAgAAAAAAJI4ABAAAAAAASBwBCAAAAAAAkDgCEAAAAAAAIHEEIAAAAAAAQOIIQAAAAAAAgMQRgAAAAAAAAIkjAAEAAAAAABJHAAIAAAAAACSOAAQAAAAAAEgcAQgAAAAAAJA4AhAAAAAAACBxBCAAAAAAAEDiCEAAAAAAAIDEEYAAAAAAAACJIwABAAAAAAASRwACAAAAAAAkjgAEAAAAAABIHAEIAAAAAACQOAIQAAAAAAAgcQQgAAAAAABA4ghAAAAAAACAxBGAAAAAAAAAiSMAAQAAAAAAEkcAAgAAAAAAJI4ABAAAAAAASBwBCAAAAAAAkDgCEAAAAAAAIHGqVnQBsK4ePXpE9erVi9v9+vWr0HoAAPj+quRF7L1DxA8apWLngoga1SLSEbF8VcTn83tEq2EAACAASURBVCM+mJOO976IKCyq6EoBAIAkEoCwRenSpUvUq1evuC0AAQDY+hy4a8T5h6Xi6L1SUbfGxkamYv6yiNH/TsfDr6bjrU/Lr0YAACD5BCAAAEBW7Fw/4o5OqTimVarUcwq2jTi9TSpOb5OKkVPS8Zun0zFrQU7LBAAAKgkBCFnTsmXLMq9RpUqVTa45bdq0Mv8eAACyq/3uEYPOyYsGNb//Gsftk4q2u6bijEeL4o2Ps1kdAABQGQlAyJqBAweWy5pt2rTJ+u8BqGht2rSOalWrFbdfHz++QusB2Bw/2jni6fPzomZ+2ddqWDtixAV58bM/FsXkz7NRHQAAUFkJQABgC3DhhRdGndq1i9uvn9q5QusBKK2a+RGDuq8//JizKOLFKd+c7TFrQcT8ZemIiCjY9ptD0dvsGtFxn1RsVytzXq38iCfOzouDbi2K5avK6YUAZMHixYuidu06G7w+e9as+PTTT+KLL2bHmtVrolHjxtGq1T7RYLvtyrVOAKgsBCAAAMD39usOqdilfmbf4hURfUakY9iEdKwqXN+sb4KQgf+K+M0z6eh2UCpuOCEVNbZZO6LZdhGXHZWKm15K5/YFAJRRUVFRDB82JJ4Y8FhUq7ZNPDfyryXGjB0zOu67566YOnVKiWt5eXnR9qB2ceGvLor2hxxaTlUDQOWQV9EFAAAAW6da+RHnHZJ54Pn8ZRFH3lUUA/+1ofAj04rVEQ+/mo4O9xTFkpWZ1847NBXbbrOhmQAVb/68edH5lBPj6iuviPfXc17l8uXL48orfh3n9zh7veFH/C9AGf/6a/GLM7rEVVf+JlavXl0OlQNA5eAJEHJq7Nix8Ze//KXU42+99daoVWvtHgh9+vTJUWUA2fPM00+Vy5qdbIsFbGF+tncq6tTI7Os5OB0fzNn8tSbPirhoeDr+3G1toFKwbcRRLVPx/LueAgG2PIsXL4ozTu8cH7xfMviIiEin03HpRb1izOhRpV5z2JDBMX/+/Oj/wMORl+eeVQAoKwEIWbN48eKovc7+9RERHTp0iFq1asUtt9wSs2fP3uQaa9asyWi//PLLWa8TAIDs+Mmeme1JMyP+OvX7hxXPTEzHb45ORcvGmb/j+XfLUCRAjtxx260bDD8iIv700AObFX58a/RfX4rHHv1TnHPu+WWsEGDr89Zbb8XwYcPi9jvuqOhSSAi3E5A1nTt3jr///e8l+tu1axdPPvlknHfeeVGtWrUKqQ0AgOxrtWPm9lcvTC7bkxrpdJR42mPvHVIbHA9QUT75+OMYMmhgRl+VKlWi7UHtIiJiyZLFcd8f7ykxb8+WLeP3N94cTz7zl3jq2efi1tvviv0POKDEuHvuvjMWLVqUw1cAsOX47LPP4o47bo8f7tMqDml/cNx33x8ruiQSxBMgZM3XX38dv/3tb+PQQw+NPn36RMOGDYuv5efnx7nnnhuHH3543HTTTfHvf/+7QmsFAKDsdi7IbE/4tOxrvvFxZnvXBmVfEyDbXnrxhSgsXHvQUZWqVePhR/4cRxx5VERE/N8rr8TSJUsy5nTvcV70uapvVKm69quYA1q3iVNP6xIPPdA/brvl5uL+pUuWxIhnno6zzu5eLq8HoLzNmzcvRjz7bAwaPCj+NX58pNO2PCU3BCBk3auvvhrvvPNO9O7dO0466aRIpdbetdeiRYv485//HM8991zcc889sWzZsgqtFSBX3pwwIf7zwX9KPb5z51MjPz+/uD1iM85PAqgotapntr9aUvYPrl8uTkfE2vePtatvdDhAhfi/VzJ3Pzj5lE7F4UdExIyPpmdc//HhR8TV11yb8fn4W6lUKnpe+Kv45JOP48lhQ4v7x/3f3wUgQKIsX748XnrppRg8aFCMHTsmVq9eXdElUQkIQMiJxYsXx8033xyjRo2Kvn37xs4771x8LS8vL04++eQ45JBD4vbbb49XXnmlQmsFKKt0Ol3iw+wB++8fX8z+IoY/+WSsXLlyk2uccOIJGQHIoEGDc1IrQDZtUyWzvWTTf+42aeHyzHYNO6gCW6DZs2dltI8/4aSM9n//+0VG+7yeF643/FjXhb16ZwQg72/kfBGArUVhYWGMG/d/MWjQoHj+uediyXeejoNccwYIOTVx4sTo2rVrDBgwIIqKijKuNWzYMG677ba46667Yvvtt6+wGgHK6uqr+8bnn3+e0VelSpU48cQT4p6774of/ehHFVYbQHnKxs4Fdj8AtgZfzZ2b0W6yww4Z7Tp16ma09261zybX3KXprlGvXr3i9ryvvy5znQAVIZ1Ox+uvvRYXXdQ7dt55pzj2mGNiyODBpQo/WrRoEX37XlMudVI5eAKEnFu5cmX069cvxo0bF3379o3ddtst4/qhhx4a++67b9x3332bvCMGYEv0wX/+E5f9+vI44fjj4/TTu0TVdfZ13n777eOavlfH6+PHxyOPPBoLFy6s0FoBACi7qtWqxapVq4rbK5ZnPr628y67ZLS/e0PghuRVWfto3brvKQG2Bu+//348/dRTMXTokPjoo49KPa9+gwZx8sknx5lnnBntDj7Y94NklSdAKDdTpkyJM888M/r165fxRjEiok6dOnH11VdH3bp1NzgfYEtWWFgYI/7yl/jNFb+ND6dPL3H94Hbt4r4/3hsdOhzlzRwAwFaucePGGe2Jb7+d0T76pz+LqlXX7uH37juTNrnmF7NnZzz10aDBdlmpFSCXZs2aFXfffVcc2KZ1/GjfH8aNN95Q6vBju4YN46+jRsVnn30e/fvfHwe3b+/zMlnndgLK1Zo1a2LAgAHx6quvRt++fWOffTb9GDDA1mTmzJnRp89VcdRRP4lfnnVWVK++9vTemjVrRs/zz48fH3ZYPPDgQzFr1qyNrgWwtbmrcyqWrirFwI2ouU22qgHInf32OyBmrPMF34DHH43TTu9a/N6vYcPt4/gTTowRzz4dEREP3t8vDj3sx5GXt+H7UB9+6P6M9l6tWuWsfoCyWLBgQYx49tkYOnRo/POfr5b6Kbf6DRpkBr3168cRRxyZw0pBAEIFmTFjRvTo0SNOPPHEuOSSS2Lbbbet6JIAsiadTsfYsS/Hu+9Ojp7nnx/77vvDjOstW7aMO++4PUaM+Es8O2JErF69usJqBcimo/dyxx5QORx/4knxzNNPFrc/njEjLurVM+7t90DUqFEjIiJ+d/0NMeHNN+Lzzz+LN/41Pq77Xd+49rrfR5X1bG018PHHYuDjj2X0tW9/SDm8EoDN0+W0zjFq1KhYuXJlqcbXr18/TjjxxOjUqVMcfvgRUbtWzZzXCOtKtW7d2jGDVKgmTZrEVVddFQcddFCJa23atKmQmqgcdmm6a0WXQCVxcLt2cd5550bt2rVLXJs5c2Y8+OBDcWWfK6POOtc7ndq5nKukMhm74/CKLoGEWHRv+eyoW+fi0t1VCJvy7uVzKroEEiKdTsepJ58QkyZmbn214447Ra/eF8cxHY+LunXrxqeffBK9Ljg33vv3vyMiYq+9946zfnlO/HDffaNK1arxwfvTYtiQwfHaP1/NWKdu3brx6vg3o1atku8f4fvYoZEt1ciO6vmbfly3oKAgjjn22OjU6dTo0KFDbLPN2jnrzt9jjz3i3clTclYrhACELclxxx0XnTt3ztjrr1u3bhVaE8kmAKE8FRQURI8e58RBbduWuJZOpyOdTmdsiSAAIZcEIGSLAIStjQCEbPrwPx/EKScdH0uXLClxrWrVatG8RfNoumuzqF69ejw34tnNWrvv766L7j3Oy2K1VHYCELJlQwFIvXr14tiOHdcbemxovgCE8mALLLYYI0eOjJEjR1Z0GQA5MX/+/Lj99juidevWcd65PaJBgwbF11KplIPeAAC2Mi1+sEc89Kc/x/nndi8RgqxZszrenzYt3p82bbPXPbbj8XH2OedmsVKA3Dr0sMPiT396JHbd1Y2mbHkEIABQjt56662YNm1a/OLnP4+jjvqJ4APYqu3Sx5MZQOV2cPtD4pkRz8fll10SU6dMLvN6Z3fvEX36XuM9IrBVefUf/4g99/hBtGzZMjp1OjXOOPPM2G233Sq6LIiwBRZQmdkCi4q21157xQU9e8YOOzQpcc0WWOSSLbCAysoWWORKYWFhvPDcX+LRPz0U//731M2ef1C7g6NX74uj/SGH5qQ+sAUW2VKaM0AiYoNhiC2wKG8CELYY+fn50bRp08jPz48FCxbEZ599VtElkXACELYE22yzTZx2Wuc48YQTnAFCuRGAAJWVAITy8NFH0+PVf4yLdyZNjE8/+SRmz5oVS5cuiWXLlsW2224bderUiTp160Xz5i2i9YEHRrt2B8cee7as6LJJOAEI2dL36qtj+PBhpf7eLpVKRduDDopOnTrFySefEs13XxuGCEAoDwIQcqphw4ax0047xYoVK+LDDz+MNWvWlBiz3XbbRe/eveOoo47KOCDpyy+/jOHDh8fQoUNj9erV5Vw5lYEABKisBCBAZSUAASorAQjZVFRUFONffz2GDhsazz7zTMybN69U81KpVKTTa7+KFoBQHgQg5ES7du3iggsuiJYt197FsmjRonj44Ydj+PC1X7o0bdo0HnrooYzDgL9r4sSJcemll8ayZctyXjeViwAEqKwEIGTLgLMz96g/6zEfLdiyCUCAykoAQq6sWrUqxowZE8OHDY2RI0fG8uXLSz23bt26ce1118Wpp54a22/fKKd1UnkJQMi6rl27xqWXXrrBQ9seeeSReOihh6Jq1aoxZMiQaNas2SbXnDx5cpx33nlRWFiYg4qprAQgQGUlACFbFt2bl9Guc/GGD0W/9KjM94Z3v+xjCOVPAAJUVgIQysPy5cvjpZdeisGDBsXYsWNKvaNLXl5etD3ooPj5mT+PzqedFnXq1Ml5rVQeAhCy6rDDDos777xzo2OKioqiW7du0axZs7jhhhtKvfY999wTgwcPzkKV8A0BCFuCatWqRf369aNatWqxcOHCWLx4cUWXRCUgACFbNicA2ZyxkCsCEKCyEoBQ3r78ck489dRTMWzYsJjw5pulnlejRo3o2LFjDBo8JKf1UXkIQMia/Pz8eOqpp6JJkyabHDt8+PBo1KhRHH744cV9ixcvjnfeeSeKiopin332ifr162fMWbZsWXTs2DGWLFmSk/qpfAQgVJTtttsujj/uuGjTpnU0apT5mO+cOXPi9fHjY+TIF2PBggUVViPJJgAhWwQgbG0EIGTLCR1/ltF+/sVRWVl3v30yD0OfNGVaVtYFAQgVaebMmfHkk8Nj4IAB8Z///KdUc1asXJXzuqgcqlZ0ASRH+/btS4QfkyZNiueffz4iIo499tho06ZNRET89Kc/zdgi6+WXX44bb7wxli5dGhER22yzTVx22WXRqVOn4jHbbrtttG/fPkaPHl1OrwigdG677dbin4uKiuLKK/tscOzhhx8e5/Y4J6pXr77e640aNYqTTzopjvnZz+Kxxx6Pl//2t5zUDADA9zd1yuRSj92cUGPhwoVlqgtgS7TLLrvE5Zf/Ji6//Dfx3nvvxZDBg2PQoEHx3/9+UdGlUQnklWIMlMoRRxyR0Z4wYUL07NkzRo4cGSNHjoxevXrFuHHjIiKiXr16Ubdu3YiI+PDDD+Oaa64pDj/ifwco3XrrrTFp0qSMNdd9YgRgS7H7brsV/9ttI+cade58avT+Va8Nhh/rql69elxwQc/ofOqpWa4WAIDytHDhwox/AJXZXnvtFTfedFPM+Pjj+PvfX4lzevRw5gc5JQAha37wgx9ktO+///4oKlq7tUE6nY77778/0unMXdeGDBkSa9asKbFeOp0uceZH06ZNs143QHlofcAB0eW00zZ7Xpcup8WB/3t6DgAAACrSxx9/nPHv+8rLy4uD27eP/v3vj09nfhaDhwyN448/PvLz87NaL9gCi6xZ98yO1atXx3vvvVdizIwZM2LmzJkZQcbbb7+9wTUnT858rLhBgwZZqxegvFSpUiV69DgnY+u/iIjly5fHG2+8EZ98+mkUFRZFo8aNot1BB2X8PU2lUtGjxzkx6Z13YvXq1RVQPQAAAHyj5Z57ZLSzcVZHjRo1olOnTtGpU6eYP39+jHj22TKvCd8SgJA1NWvWLP550aJFGU9/rGv27NkZAchXX321wTXX3RYrIqJ27dpZqRWgPO27777RsGHDjL4pU6bEXXffE4sWLcrof+KJQXFWt25xzDFrD9Zs0KBBtGvXLv7xj3+UW80AAABQFk0aN8pof/HfOZucU1BQEN3POSeHVVHZ2AKLrFmwYEHxzwUFBVG16vrztWXLlmW0N3ZHc6NGmX8o1/0dAFuL3XfbLaM9c+bM+MMtt5YIP+J/fxMfefTRGD/+Xxn9tsECAABgazJ//vyMf1ARBCBkzbpPcuTl5cX+++9f5jV/+MMfZrTnzZtX5jUBytv222c+/fHU08/EypUrNzpn2PBhGe1mzXbNSW0AAAAASWULLLJm4sSJ0bJly+J2t27dYsKECSUOPb/vvvtiwIABm1wvLy8vfv7zn2f0vf/++1msGKB8VKu2TUZ76pQpm5zz+eezYvHixcVb/xUUFOSsPgAAAIAkEoCQNePGjYszzzyzuN22bdu49tprY+DAgTFjxozi/lmzZsWsWbM2ulatWrXiyiuvjObNm5f4HQBbm6+//jqjvWz58lLNKyxce5ZSXp6HNoEt371dUjkZe/HwdClGAQAAZBKAkDXvvPNOTJ06NVq1alXc17FjxzjssMPiyCOPLPU6Xbt2jQsvvDCqV6+e0T937tx48803s1ozQHmYPGVynHTSicXtBg0axJw5Gz/8rWbNmlGvXt3itv1Sga3B2QeXPtTYnLECEAAA4PtwOylZk06n46677oqioqJSjN6w+vXrlwg/IiLuvffeTe6ZD7AlmjJlanz22WfF7f3322+Tc47u0CGjPXedc5YAAAAA2DRPgJBVU6ZMid///vfxu9/9LqvbtYwcOTLGjBmTtfUAciUvLy86dz415n45N+Z+9VV89dVX8fXXX0f/+x+I66+7NvLz8+O4446Lv/3977Fq1ar1rrH77rvHKZ1OyeibNHFSOb0CAAA2121/uCknYwGAshGAkHUvvvhiLFmyJC6//PJo3Lhxmdd7+umn4/bbby9xmDrAliiVSsXpXbpk9KXT6Zg/f0EUFhZGRETjxo2i0ymnxNBhwzLGNW/ePI466idx+I9/HNWqVcuY/9rrr5fTKwAAYHM9+ED/nIwFAMpGAEJOjBs3Ll577bXYb7/9Yqeddtrs+XPnzo1JkybF008/HZMmuesZ2LqlUqmoX78go2/J0iUlxh2w//7R4aijSvSPGj06vvzyy5zWCPB9/PD3Zdv6FAAAIJcEIOTMmjVrYsKECTFhwoTNmte/f//o398dMUCyff7556Ua98UXX8TgwUNyXg/A9/HJ1xVdAQAAFWn+/Pk5GVtQUFCKUbBpAhAAKKNH//znqF9QP+rX/+ZfQUFBbLddg6hevfoG56x7KPqGfPLJJ3HDjTfF8uXLs1wxAAAAlF2Txo1yMnbFyvWfmQmbSwACAGX00kt/XW9/jRo1okGDBt8EIwUF0aBBgygoKIi69erG11/P2+B68+bNi9FjxsQLL4yMlStX5rByAAC+j+dfHFXRJQAApSAAYYvSpEmTyMvLK27PmjWrQusBKIvly5fH559/Xurtrl7+299i3D/GxX//OyfntQFsyXZtkNm21RawpWm1zw8rugQAoBQEIGxRBg4cGPXq1Stut2nTpkLrAShPX3/tGz5g67Lo3ryMdp2LN3wo+uaEGpN/V/p1AQAANkQAAgAA5JxQAwBg69epU6eKLgE2iwAEAAAAoIIVFhbGrFmZW6fuskvTCqsHYH0GDxla0SXAZhGAkDX9+/cv8xq1atXa5Jq9evUq8+8B2JLUqlkzdt5ll6hWrVosXrw4Zs6cGYWFhRVdFgAApTRnzpwYM+qlmDHjo5j75dwoKCiI/Q44II7q8NOoU6dOqdZYtHBhHH5Iu4y+GTNn56hiAKgcBCBkzYEHHrhVrAmQa6lUKpo0aRw7NNkhlq9YEdOnT4+VK1eWGLf99g3j7F/+Mtq0aROpVKq4f/HixTF69Jh4dsSI9c4DAGDL8eD9/eLeu+8s8b5t8KCBUbt2neh5Ya847/wLokpVX8EAQHnzf18AyKJ27Q6KrqefHjvuuGNx34oVK+LZZ0fEsyNGRDqdjoiIXXfdNa6/7toST75FRNSuXTtOPbVT7PujfePGG26MJUuXlutrAABg09LpdFzd54oYNmTwBscsXrwobr/1D/G3l8fGff0fjCY77FCuNQJAZScAAYAs6XzqqXH66V1K9FevXj3OOKNr1K5dOx4fMCCqVasWl//6svWGH+tq0bx5XHvt76LPVVfHmjVrclg5AACb65mnntxo+LGuiW+/FScdf2w8NnBw7LX33jmvDaC8rVixIt5+66149Z+vxgcffBAL5i+I+Qvmx6qVK6NKlSpRv36D2GHHHaJFixZxYJsDo82BB0Z+fn5Fl00lIAAhpz744INYuHBhqcfvv//+UXWdx4KnTZuWo8oAsuvggw9eb/ixruOO6xivvfZa7LTzTtGkSZNSrbvbbrvFiSecEM88+2yWKgUAoKyWLFkcN994fYn+qlWrRePGjeOrr+bGihUrMq7NnftlnNGlUzz6+BNxQOs25VgtQO7Mnj077r3nnnj00UdiyZIlpZ5Xr169OPGkk6J374uiVatWOa2Ryk0AQk7Vr18/Hn300XjllVdKNX7s2LFRr1694na3bt1yWB1AduTn58fZv/zlJselUqk44ogjokGD+hn9CxYsiKlTp0ZhYVHstVfLaNiwYcb1Tp1OidGjR9sKCwBgCzF2zOhYsGBBRt9ZZ3ePS399RdSpUyeKiopi0sS347Zbbo4Jb75RPGbRokXxy25nxoAnhsb+BxxQAZUDZM/QIUOiV68LY9myZZs9d8GCBTHg8cdj4IABcebPfx63335HFBQU5KROKre8ii6A5OjXr1+JQ98aNmwYt912W9x8883RoEGDCqsNIJdatz4g6tfPfKM2cdKkuOPOO+P22++INydMKO5vf0j7aNmyZXH7lVf+Ly64sFfcfc+98cf77otev+odzz3/fMZa+fn5cUBrH5ABALYUf31xZEb75FNOjWuvvzHq1KkTERF5eXlxQOs2MfTJZ6LnBb0yxi5dsiTO7nZmvDNpYrnWDJBNt956S5x99i+/V/ixrnQ6HYOeeCLaH9wupk+fnrX64FsCELJmwIAB0aVLl5iwzhd93+rQoUM89dRTcfrpp0denv/sgGRpe2DbjPbEiRPj5pv/EOPH/yv+9cYbceutt8Vrr70eERG1ataMmjVrRkTERx99FPc/8ECsWrWqeG5hYWE88cSgmDx5csaaB7axTQIAwJbi4xkzMto9e/1qvePy8vLiij5Xxw03/SHjs/DixYvil784Iya/+07OawXItpEjR8Z1115bqrGpVCr233//aNGixUbPwZwxY0Yce8zPYu7cL7NYKQhAyLJZs2ZFr1694rrrrotFixZlXKtdu3b8+te/jocffjiaNWtWYTUCZFvTprtktIcOGx7pdDqjb9jwYSX6Xhg5MoqKikqsl06n44WRL2b07bDDDlmtGQCA7+/LL9d+QZefnx+77bb7Rsef+Yuz4tY77ooqVaoU9y1atCi6nXl6TJn8bk5rBcim1atXx+W/vqzE59vWrVvHHXfeGU8MGhw33HhjNG/ePOJ/n29btGgRr4//V3z19bz4z4fT44EHHoxDDzusxNozZ86Mi3r3LrfXQuXgDBCyLp1Ox4svvhhvvPFGXHHFFXHEEUdkXN93331jyJAhMXjw4Hj44Ycz7nwG2BrVrVu3+OfVq1fHxx9/XGLM7NlfxOzZs2PHHXcs7ps2bdoG1/zwww8z2uuejwSwpXruwlROxgJsadasWV38c9269TKCjQ3pdOppUbimMPr89vLiLw6/DUGeGDI8dtxxp5zWDJANI0aMiE8++SSj7/rf/z6uuOK3kUqtfX938cWXRM+e58eQwYNj+PDh8enMmTF27Muxyy67xNndu8fZ3bvHmDGjo3v37vHV3LkZ67/99ttxgHOSyBJPgJAzX331VVxxxRVx2WWXxdx1/pBFRFStWjXOOuusGDZsWLSxrQuwlatevXrxz0uXLitxJ8y3vvwy82/hggULN7jmihUrMtrbbrttmesEyLUj9kht8F9ZxgJsabZv1Kj456+//ioWL1600fHfOu30rtH32usz+hYuXBi/OKNLTJ06Jet1AmTb6NGjMtpdzzgjfvvbKzPCj4iIbbbZJh566OFo3bp1RET8a/z4uPGGGzLGHH30T2PMmLHF20R/a/CgQTmrn8pHAELOvfrqq9GlS5cYMWJEiS8Fd9555+jfv39cf/31GXdQA2xN1t3yr27dOlG16vofsPxuqLFmzZoNrtmw4XYZ7YULNxyWAABQvtZ9WqOwsDCeGj6s1HPP7t4jLrv8ioy+hQsXxgXnnZPVGgFy4c033shoX3llnw2OrVatWlz+m7V/7+6/v38sWbIkY8xee+0VPXtekNE3fvzrWasXBCCUi8WLF8fNN98cF198cXzxxRcZ11KpVBx77LExfPhwdzgDW6V58+cX/5xKpeKH++xT5jX33LNlRlsAAgCw5ehw9M8y2nfcdkv87eWxpZ7/q4suiZ4X9MroW7ZsWdbqA8iVOXPmFP9cr1692GOPPTY6vn37g4t/Xrx4cYwcObLEmGOOOSaj/d0ttqAsBCCUq/Hjx8dpp50WAwYMKHHwb4MGDWKbbbapsNoAvq9/T/13Rvvkk08q8fhvRMQTgwbFFVf8tvjfhlStWjVOOvGEjL7pH32UxYoBACiLjscfn/H5dcWKFXFu97Oi00nHx43XX1uqMOOKPlfHL846O8eVRYzT0QAAIABJREFUAmTXujsZVK9eY5Pja9asldH+8D//KTFmu4YNM9pLly4tU42wLoegU+5WrFgR/fr1i3HjxsU111wTzZo1q+iSAMrkzQkT4qSTTixu77XXXnH55b+Ov/zluYzDzOfMmRNzNrDGt+rVqxvnn39+xmHpERET3pyQ9boByqrOxUWlGAWQPNtt1zAuuuSyuOO2WzL6J018OyZNfDt69b64VDscXPf7G2PVqpUxfOiQ3BULkEVNmjSJj/53g96XX86JBQsWRL169TY4/qPv3Mw358uSn4pnzvw0o93wO4EIlIUnQKgwU6ZMiTPOOCP69esXq1atquhyAL63Dz74IKZNm5bRd1DbtnFN36s3a52TTzopHn7ooTiwTZuM/rlz58aUqVOzUisAANlxfs8Lo93B7cu0RiqVihtvvjWOOfa4rNUFkEvrnoFUVFQUgwdv/MDyJwYOzGg3btS4xJjhw4dn/o6ddioxBr4vAQgVas2aNTFgwIDo1q1bTPXlHrAVe+yxx6OwsLBMa9SsWTOqVKlScu3HH4/Vq1eXaW0AALKrStWq8chjA+OUTp3Ltk6VKnHPff3j8CN/krXaAHKlXbt2Ge3rrr02pkyZst6xf//73+L++/tn9O22224Z7aFDhsTQIZlPwR3d4ehslQu2wGLL8NFHH8U555wT++2333q//APY0n00Y0bcfc89cekll2T179ioUaPjjTfezNp6AABkT40aNeKOu++Nn3c7K4YNHRwT3nwjvpg9e7PXqVatWtz/4J+i94Xnr3d/fIAtRdczzojbbrs10ul0xP8ONj/yiMPjyj59onPn06Jx48bx6aefxhMDB8bdd9+VcWZIjRo14phjj42IiHfffTduvOH3MXLkyOK14n9PxnU5/fQKeGUklQCELUZRUVG8/fbbFV0GwPc2fvy/YunSm6PHOd1LnOGxudLpdDz33PMxaPDgrNUHUF4Kto2Yv5Hzf5s2iNi9YSqa1I3YpkrEfxdFTJqZjv8uKs8qAbLnR/vtHz/ab/8yrVG9evX4058HZK0mgFzYc889o0uXLjFs2LDivsWLF8fVV10VV1911Ubnnt61axQUFERExJgxo+OFF14oMebc886LFi1a5KByKisBCABk0eTJk+PiSy6N3XffPRo3Lrm36casWr0qZs+eHe9NmxajR4+JGTNm5KxOgGyrkhfR/eBUnHtoKpavivjxnSUPSD9x31T89mepaLVDyfnpdCrGz4i4Y2w6Xp6WLjkAAIAtwh133BmvvfZafPbZZ6We06xZs/jDH27Z6Ji99947br75D1moENYSgABAlqXT6Zg+fXpMnz59s+Y9+eRT8eSTT+WsLoBcaVg74unz8mK/Xb5pT5qZeb1mfsSdp6bijANTG1wjlYo4ePeIZ3dPxaA3Ii4Zno5VZTtaCQCAHNiuYcN48aW/xnEdj42ZM2ducnyzZs3imWdHRL169TY45uD27eOZZ56NWrVqZblaKjsBCFuEvffeOzp27BgtWrSI/Pz8mDdvXkyaNCleeOGFmDdvXkWXBwDABtStETHyV3nRcgMPveWlIh7tlopjW204/Piun7dNRcG2EWc+mo4iD4MAAGxxfvCDH8Qbb06Ivn2vjoEDBsTq1atLjKlevXqc3rVr/OEPtxRvffVdzZs3jyuv7BNdzzjDucDkRKp169Y+UpB1VapUiWOOOSYOPfTQ2HnnnWPFihXx1ltvxbBhwzICjby8vLj88sujc+fO611n6dKlccstt8SoUaPKsXoqi12a7lrRJQBUiLE7Dq/oEkiQuzqnoschmeHGpJlrt8C67KhUXHd86cOPdV3zfDru/ZuPK2TPu5fPqegSSIjb/nBTRvuKPldnZd1fXXB+RrvfAw9lZV3YodF2FV0CCfb1V1/FqFGj4r333ouFixZG48aNY/fddo+f/uxnUb9+/fXOmT59elStWjV23dV3M+SWAISsa9KkSdx7773RrFmzEtfmzZsXF110UXzwwQcREXHZZZdF165dN7peUVFR3HbbbfHMM8/krGYqJwEIUFkJQMiW5ttHvHVVXuStk2+sKYro90o6fvd8OurUiHj/+ryolZ85793PIx79Zzqm/TcdhUURLbZPxVntUnHw7pnjlqyM2Pu6oo0eqA6bQwBCtuy2S+ZhRjNmzt7g2M0JNTZnXdgcAhCgsrIFFlnVsGHDeOSRR2L77bdf7/X69evHnXfeGV26dIkddtghunTpssk18/Ly4oorroj33nsvpk2bloOqAcpXlSpVom3bttG27YHRpEmTaFC/QVSrVjUWLVoUH06fHuNfHx8T3nor0mn3KABbtlP2S2WEH6sLI7r8ae0h5ke3TJUIP/7493Rc+8I3wce33vo0HcPeSkfvI1Jx44lrF6yVH9GlTSoeHOfvIbD1eunFF77T46kOACgvAhCy6tJLL91g+PGtRo0aRceOHWPnnXeOvLy8Uq37bQjSvXt3XwgCW5ye56+9q68oXRQPP/ynDY5t2rRpXHbpJbHTTjuVuFazZs1o0qRJHHboofHpp59G//73x0czZuSsboCyOmrPzK2thk5YG37E/54QWdeY99JxzfPpWN/buXT6m3Ck+fYRv2y3dt2jW0Y8OC4HxQMAAIknACFrWrRoER06dMjoKyoqig8//DCKiopijz32KA48jjnmmKhevXrxuEWLFsUDDzwQr732WhQWFkabNm2iV69e0bBhw+IxrVq1ir333jumTp1ajq8KYNM6dDiq+OfCwsINBiAHHnhgXHbpJVGtWrVNrtm0adO46aYb444774q33norq/UCZMtO3znL8tlJme0d62W27/3b+sOPdd01Np0RgLRskooIN8AAAGwJzjwjcyv7wUOGVlgtUBoCELLmyCOPzGgvXLgwevfuXbxtVfPmzaNfv37RoEGDaNWqVfG4lStXRs+ePePDDz8s7nvxxRdj0qRJ8cQTT0SdOnWK+w8//HABCLBV2mmnneKi3r8qVfjxrWrVqsVll14SV13dNz755JOc1gfwfTSsndmeNT8zqPju2R3vztr0mp98/c28gm2/aW9Xq8xlAgCQJd89o3fwRsb2vfrqjPaNN92Uo6pgw0q3/xCUQtu2bTPaDz30UMaZHdOnT4977rmnxLxhw4ZlhB/fmj17dgwcODCjb//9989qzQDl5Ve9LowaNWqU6J89e3aMH/+v+Oc//xkfffRRiW3+8vPz/7+9+w6PourbOH5PeiGk0aU3AYXQLShIURARUMQG+KpgQVF81EfFBtiQxwaoKIpdQBFUlKIICCioIB3pTVpoCYSQnuy8fwwENmV3k+xmk+X7ua5c5sycOfPbJeZK5s45R0Pvv0+GYeS7FgC8LSvHvh2WZ7+PPQn2bX8Xv5XZzvlWeO5eIQAAACg/Xn/9NbsPwBsIQOA25y5XpdOzOPJasGCBTpw4YXds0aJFhY65ePFiu3alSpVKXCcAlLbGjRurUaNGdseOHTumkaNG66GHh+v1N97QW+PG64knn9LDw4dr85Ytdn0bNmyoFi1alHLVAODcQfsf69S+rn3CMXu9qcxzQpJ2dZ0nIDWjpdjws+0jySWvEwAAAMD5iQAEbhMTE5P7+fHjx5WampqvT3Z2tvbt22d3zNGyLvHx8YXeAwDKi2bNmtq1k5KS9MyzzxW4pN/Bg/F64YUXtXPnTrvjl19+mcfrBICiWrnHftba0E6GQoPOto8kSzNWne3zaDdD/k5+A/lPN/uQZN1+9v8AAAAAUDwEIHCb9PT03M8LWubljGPHjtm109LSCu1boYL9os9ZWVklqhEAvKFK5Sp27RkzZ+b7XniuzMxMffaZ/RKAeWeQAEBZ8M1q+3b9StLndxoKOycEefJbM3cprMsbSG/2NxToX/B4D1xl6J4r7AOQxVvdXjYAAACA8wQBCNwmMTEx9/OQkBBVq1atwH42m/1CznnXuz9X7dq17doJCQmF9gWAsipvmLtixUqn12zavNkuWM67zCAAlAW/bjX11277Y90vMvT3M34acoWhmHApKU3q/a5N6/Zb5++63NCSx/1052WGWtSUmlWXbm5raPYwQ6/eYB9+JKZIX//NDBAAAAAAxRPg7QLgO3bv3q26devmtvv27av3338/X78NGzY4DD3O1adPH7v2wYMH3VApAJSupKQku3bevZAKYpqmUlNTFRISIkkKDgpyeg0AlDbTlIZNs2nRo36KCDl7vGaUNdPjf/0M7TwqbTtsasdRU3E1rYDj4hrShFsNSY73BHn1Z1OnMjz9KgAAAAD4KgIQuM3SpUvVuXPn3Pbtt9+uZcuWacOGDXb9pkyZ4tJ47dq1U48ePeyOLV++3E3VAkDp2bxli3r2vDa3XaFCBachSGBgoKKjo3PbeUMUACgrth6WbptsaupgQxXzrIIa4CddWFW6sKrzzc/zmrHa1KSlzP4AUD4s+/03j/QFAAAlQwACt1m6dKlSUlIUHh4und4HZPLkyVq2bJkeffRRl8dp1qyZ+vbtq+uvv14BAWe/RG02m5YsWeKR2gHAk1avXq2kpCRFRkZKki66qJmWLXMc6F7Svr0M4+wDw3OXGQSAsmbpdlNd3zL1/gA/talTsrFMU3pnsamRP5hycdIwAHjdoNtv8UhfAABQMuwBArc5efKkPvnkE7tjfn5+atmyZZHG6dy5s2644Qa78EOSZs2apfj4eLfUCgCeYhiGWrRooRo1qiswMFCSlJ6erk8//Sx3+b+e117rcIyKFStqwIABdsf++WeTB6sGgJLbeljqNs6muz8ztXpv8cb4daupXu/Y9Mz3prJtLlwAAAAAAA4wAwRuNW3aNF1yySVq166dW8dNSEjQxIkT3TomAHiCn5+fRj7/XG77xIkkHTt2VMeOHVNSUpKioqLUpEkTXXttD82b95PdtVFRkWrduo3633STqlSx3/R8GUsAAigHcmzW0lUzVpuqX0nq2sRQ27pS/UqGasdIoYFSZKiUnG5tjn48Tdp6yNpIfck2U1sPe/sVAAAAAPAlBCBwq8zMTD322GMaO3asLrvsMreMefToUT3wwAMubRoMAGVNVFSkoqIi1bBhQ7vjYWFh+fp2v6a7br65f77ja9eu1c6dOz1aJwC4265j0q7fTX34uySxlhUAAIAvGnD7bR7pO2XqtGJWBNgjAIHbpaWlafjw4ercubOuvfZaValSpVjj2Gw2LVq0SOPGjdPhw/w5IADfsn//fpf6paWladIHH3q8HgAAALjuiRHPeLsEACgTZs6c6ZG+U4pZD5AXAQg8wjRNLVq0SIsWLSrytUuXLtXmzZu1bt06JSQkeKQ+AHCnpb/9pkqxsYqOjlZsbKyCgoKcXrNv3z6nfU6dOqWXXxmjI0eOuKlSAAAAuMP9Qx/0dgkAAMAFBCAoczZs2ODtEgCgSMaPn2DXrhAerpjYWMXGxig6KlqxlU6HIzExio2NVUREhA4dKnxmm2maWrNmjT759FMdPBhfCq8AADwrwE+KCZfCTufDKZlSYoq1ZwgAAAAAeAoBCAAAbnYqJUWnUlK0d+/eIl23du1axcfHa8vWLTpy5KjH6gMAT/MzpC5NDPW8WLq8gaGGVaQgf/s+GdnS9iPS8p2m5myQFm8zZbJVCAAAAAA3IgABAKCM2Lptm7Zu2+btMgCgRG5sZei56ww1qOy4X3CAdHEN6eIahu69Utp+xNDo2aZ+WEcKAgAAUFbFO1jNACiLCEBQpjz33HMKCwvLbY8YMcKr9QAAAMA14cHSBwMNXd/CKNb1japIX95t6Ns10tCpptIy3V4iALjNsKH32bXfeW+SW8btfV0Pu/YPc35yy7gA4C7R0dHeLgEoEgIQlCkdO3ZUVFRUbpsABAAAoOwLC5JmP+inNnVKPtaNrQzViDTUZ6JNaVnuqA4A3G/unB/zHCk8AClKqLFxw/oS1wYAAM4iAAEAoAwyDEPh58yI0+m9RQCgLHp/gFFo+HEqQ1qzz9TeBCk53TpWMVSqHWOoVS1r5khel9aX3r3N0N2fsxwWgPKPUAMAAO8hAIHbdOvWrcRjBAUFOR1zwYIFJb4PAHhSeHi42rZtoxrVaygqOkqnkk9p69atWrtunTIzXVvTJaJCBX3yycd2x/rd1N9DFQNA8fWOM9S3Zf5lr37bYWr8QmnhFlM5toKuNOXvJ117kaFHuhlqX9f+7E1tDM1YLc3dSAgCAADgKxITErT8jz8Uf/CgwsLCdMmll6phw4beLgs+jAAEbjNmzJhSGZMABEBZ1r37NRo4cKDCQkPznTtxIknffPONfp4/X6bJAz0A5Z9hSCN65A8/Rv1o6q2Fppx9q8uxSbM3mJr3j6kRPQw90d1+rBHXGgQgAAAAZdjRo0e0cOEiHTx4QNWr11CXLp1VtWq1fP2OHz+up556Ul9Nm6aMjAy7c507d9H4CRPUuHHjUqwc5wsCEAAA3OSOOwapT+/ehZ6PiorUPfcMUfv27TR+wttKSkoq1foAwN0uqSddVMP+2Nu/mnpzQdFCixyb9NJcU5UqSHd3OBuCxNWU2tSRVv3rrooBAADgDjk5ORrzyit66603lXLOcs1BQUEaNuwhjX7hBQUGBkqS9u/fry6dr9LevXsLHOvXXxfpqqs6ad68nxQXF1dqrwHnBz9vFwAAgC+4okMHh+HHueLi4vTqmDGqUaOGC70BoOy69iL7GRsJKdIr84o/Y2PUbDN3n5AzelyUf4YJAAAAvMdms+m+++7VSy+9aBd+SFJmZqbefPMNDb77LklSVlaWbujbp9Dw44zEhAT17Hmtjh494tHacf4hAAEAoISCg4N11113FXguJSWlwOWuqlSprJdefEH169cvhQoBwDNa17Zvz1hlKiWjsN7OnUiVZq6x/57Zpnah3QEAAOAFkz/8UF9+8YXDPtOnT9eMGTP0yccfa8OGDS6Nm3DsmEaOHOmmKgELS2DBoxYsWKBJkyYpKyvLpf6ff/65KlasmNu+4447PFgdALhHu7ZtFRUVaXds8eLFmjJ1mhITExUUFKSLL75Yt992q+rVq5fbJzIyUiOff06jRo3W7j17vFA5AJRMo6r2szN+21HyMX/bLt152Tn3qGJIYh8QAACAsiA5OVkvvPiCS30/mDRJZp6f45o0aaLevfsoomKENm3apG9nzrTbE+TTTz7RiBFPq1atWm6vHecnAhC4zb59+/J9c+rWrZsaNGigV155RWvXrnU6hs1ms2tv3rzZ7XUCgLtddvlldu0///xT77w7MXfmR2ZmplavXq1169Zp8OC71f2aa3L7VqhQQc+PfF6jRo7Sv06mBANAWRMdat/em1jyoGL3MVPS2WAlJrzEQwIAAMBNZs+erWNHj9odu//+oRowcKACAgI045tvNG7cW8rJydHSpUvs+j388HCNefVV+fv75x7773+f0LU9eujw4UPS6WeDc+bM1v33Dy2lVwRfxxJYcJvbbrtNH374obKzs+2O16tXTx988IFGjx6tyMjIQq8HgPKq5gUX2LWnfzOjwGWvcnJy9MEHH+rLKVPsjleMiNCoUSNVuzbrvAAoX0IC7dtJaSUf83iqfTs8uORjAgAAwD3mzP7Rrj1s2EMaN3682rVrp1atWunlV17R6BfyzxDp3LmLxv7vf3bhhyQ1a9ZM4ydMsDv2808/e6h6nI8IQOA2GRkZ+uCDD3THHXfkm7lhGIZ69uypr7/+Wtddd53XagQAT4iKjs79PDs7W/v27XPY/7vvvtdHH39sF5JUrFhRo0Y+zzRfAOWKkWd/8hxbYT1dl5Vj3/ZjD3QAAIAyY+PGjbmfBwcHa8SIEfn6DBv2kKpUqWp37JH/PCIj7w+Pp/Xu3duu/+7du9xaM85vLIEFt9u+fbvuuusuDRw4UPfee6+CgoJyz8XGxmrUqFG6+uqrNXbsWMXHx3u1VgBwh6DAs38CnZycnG85v4LMnTtPfn5+uuvOO3OPRUZGatTIkRo5apROJiV5rF4AAAC417SpX3qkLwCUNUeOHMn9vF69eoqtVClfn5CQEMXFxemXX+bnHrvkkksLHdPPz0/NmzfXwoWH890DKCkCEHhETk6OPvvsMy1cuFDPPPOM2rZta3e+Q4cOmj59uiZPnqwvvvjCpYeFAFBWHT9+XFWrWn+tUrFiRYWEhCg9Pd3pdbNnz1FoSKhuvfWW3GNRUZEaPWqUXn/jDY/WDAAAAPd55qknPNIXAMqalJSU3M8jo6IK7RcTE23XDg93vLFbWNjZzeXOvQdQUgQg8Kj9+/frgQceUN++fTV8+HC7b3YhISEaNmyYrrnmGr388svatGmTV2sFgOI6evRobgDi7++vTh076uf5851eJ0nfzJih0NBQ9enTO/dYVFSkRjz1pMfqBQBP6d7M0LFTJRujUgV3VQMAAAB3q1Spkg4cOCBJ2vvvv4X2271nj137wIEDqlu3bqH9Dx0+bHcPwF0IQOBxpmnqu+++0/LlyzVixAh16NDB7nzjxo318ccfa+rUqfk2QgKA8uDvVat08cUX57YHDRqo/fv36x8Xg90vvvxSISEh6t79mtxjzv46BgDKojf6s2EHAACAL6tevXpuABIfH6/ly5bp8jzP+rZt26bVq1bZHZszZ7YefHBYgWMmJiRo/bp1ue0zf2AIuAOboKPUHD58WI888ohGjBih48eP253z9/fXoEGDFBER4bX6AKC4li1brpycs7v2hoaGavToUXru2Wd0y8032+2FVBDTNPXh5MlavGRJKVQLAAAAAEDxdOp0lV370Uf/o8TExNz2qVOnNOzBB5WdnW3Xb+yrY3XoUMF7AY8ZM0YZGRm57VatW7u9bpy/mAGCUrdgwQKtWLFCw4YN0w033ODtcgCgxBITE/Xdd9/rppv65R4zDEMtW7ZUy5YtNW/ePGVmZjocwzRNvfvuRAUGBKpDh8tLoWoAAAAU1zvvTfJ2CQDgFb169dIbb7ye2167dq2aN79Y3bt3l7+/v36Z/0tu0BEVFSU/Pz8lJibqyJHD6ta1q95591116nSVDMPQ8ePHNfbVV/X22xPs7tGz53Wl/rrguwhA4BUnT57UK6+8osWLF2vEiBGqVq2at0sCgBL5ZsYMxcW1UKNGjYo9hs1m04S331ZoWKhat2rl1voAAADgPj2vu97bJQCAV1x2+eW6smNH/bZ0ae6xhGPHNHXKlHx9r+/dW9nZ2Zo2daokaceOHerRvbsiIyMVERGhQ4cO5ZspUrVqNXXp0qUUXgnOFwQg8Krly5erf//+GjJkiAYNGiQ/P1ZlA1A+ZWdn64UXX9JDDw1T+3btSjTOa6+9rmeffUYXNWvm1hoBwN2Gf216uwQAAACUstdff0NXdeqotLS0QvuEhIToscce18mkJH01bZpM8+zPjUlJSUpKSirwuhdffFGhoaEeqRvnJwIQeF16erreeecd/f777+rfvz8hCIByKzU1VWPH/k9xcXG6uls3NW3aVFFRkUUeJzMzU2PGvKpnnh6hWrVre6RWAHCHT5YTgAAAAJxv4uLi9M2MGbqpXz+lp6fnOx8YGKgPJ3+kJk2aSJIefni4xo8f53TcXr16aeCgQR6pGecvo23btvzWAuC8VLtOXW+XgPNAQECAcnJy7P7aBfC2Xy742tslAIBXrHv8sLdLwHkmJydHJ5OSlHwqWZIUUSFCkafXxAdKU42qlbxdAnzQnj179OKLL2jRwoWKj49XWFiYunbtqmeefU4tW7bM7Weapp584gm9/faEQn837tOnj774coqCgoJK8RXgfEAAAuC8RQAC4HxFAALgfEUAAk+z2Wxa9vtvWvDLfK1c8ad27dypzMxMuz7BwcFq0LCh2re/VN2u6a7LLu8gwzC8VjPODwQg8LS0tDSnS1f9sXy5Jk16X4sXL9Hhw4cUHh6udu3aa8g99+jGG2/keyE8ggAEwHmLAATA+YoABN7gZ0gVT/9OfCLV29XgfEUAAk/6ae4cvf7aq9q1c2eRrmvYsJEef3KErunew2O1AQQgAM5X7AGCMqN27dpq1KiRwsLCdOzYMW3cuFHJycneLgsAAABFFBMu9W1pqF0dqWUtQ3VjpfBg+z6nMqSdR6V1+02t3CPNWmcSjAAol1JTU/X4o8P109w5xbp+x47tuv+eu3V97z4a+/pbCgkJcXuNAACcrwhA4DEhISFq1qyZLrjgAmVmZmrNmjU6cuRIvn6NGzfWU089pebNm9sdz8zM1Ny5c/XOO+8oKSmpFCsHAM+rX7++LmnfXtWrV1dsbIwCg4J04vgJ7dy5U3/8+af27t3r7RIBoMjqxkojrzfUq7mhYCe/aVQIluJqSnE1Dd1xqfRaP0Oz15saPcfUvwmlVTEAlExqaqoG3X6L1qxeVeKxfvxhluLj4/X5lK8IQQAAcBOWwIJH9O/fX0OGDFFMTEzusZycHM2YMUPjx49XVlaWJKlVq1aaMGGCwx/u9uzZowcffLDA8AQoCZbAgrvc0Ldv7uc206ZZs34otG9UVJQefGCoWrduXWgf0zS1cuVKTf7oYyUk8BQQ7scSWPCEoZ0MjeplKLSE+1amZUqj55iauJhfU+B+LIEFdxs29D7NnfNjgefCwsPVvHkLXXBBTVWIqCBJSj6ZrP3792njhvVKS0sr8Lo+N9yot8a/49G6cf5hCSy4y8yZM+3a/fr181otgCsIQOBWhmHov//9r/r3719on9mzZ2v06NEKCwvTjBkzVLlyZafj7tu3TwMGDCj0B0SgOAhA4C4zZ3yT+3lOTo5uvuXWAvs1btxYTz35hCIjI10a9+TJk3rp5Ve0s4jrSAPOEIDA3Z6+1tBTPdy7aeW4haae/4FfVeBeBCBwp59/mqeh9w7Od7z9JZfq3vuHqtNVXeTv71/gtTnZ2Vrwy3xNen+i1q5Zne/8hx9/pq7drvZI3Tg/EYDAXUKC7f/aJT0js9C+q1fbf39z9IeAgKf4ebuVczlYAAAgAElEQVQA+JY+ffo4DD8kqVevXmrTpo169uzpUvghSbVq1dLgwfl/sASA8iImJlpP/Pdxl8MPSapYsaKefeZpl79XAoA33NzWcfiRmSNtPSwt2WZq/iZTCzabWrLN1LbD1rnCPNLVUP827g1VAMBdTNPU+Ldez3f88See0rTpM9Wl69WFhh+S5B8QoO7X9tQ3387SA8Meznd+/Jv5xwaA8ubyyy61+wC8gT1A4DYREREaNmyYS3179eql2NhYu2O7d+/WH3/8IZvNpjZt2qhp06Z252+//XZNnTpViYmJbq0bAErD0PvvV3R0dL7jGRkZOhgfL1tOjqpWq6YK4eF25ytWrKh7771HL7/8SilWCwCuqRgqvdI3f0hxMk36aJmpH9ebWrNPyrEVdLWpAD+pTR1rw/Q7LzPybZQ+5gZDP28ydZJJwADKmNWr/taWzZvtjt095N4CwwxH/P399fgTTykxMUFfTZ2Se3zjxg1av26tWsS1dFvNAACcjwhA4DadOnXK95fNs2fP1qxZs2Sapnr27Kkbb7xRktSlSxe7fp9//rneffdd2WxnfzseOHCghg8fntsODAxUx44d9f3333v8tQCAO9WqVSvfVN/UtDR9/tnnWrxkSe6+SIZhqGXLOA0ZPETVqlXN7du6VSs1atRI27dvL/XaAcCR3i0MVYmwP/bTP6bu+9LU8VTn12fbpL92S3/tNvXWAlMf/5+hjo3OBipVIqx7fPkXS2EBKFsW/jLfrh0dE6NHH/tvscd7csSzmv3DDzp1KvnsPRb8QgACAEAJsQQW3KZTp0527fnz52v06NFau3at1q1bpzFjxujbb7+VJIWFhSksLEyStGrVKr3zzjt24Yckffnll1q8eLHdsY4dO3r8dQCAu7WMi7Nrp6ena+TIUfplwYLc8EOnl1JYs2atRowYoUOH7Ncov/LKK0qtXgBw1fUt7Nt/7JIGfORa+JHXkWSp/yRT6w/YH+/VorArAMB71q1bZ9fu3aevwvLM5C2KyMhI9erd2+7Y+nVriz0eAACwEIDAberWtd9QevLkyfn6fPzxx8rOzrY7Nn36dJlmwX/VN336dLt2zZo13VIrAJSmylXs9/D4ftYs7dq1q9D+J5OT9dlnn9kda9KkicfqA4DiurCa/fJXL82xKcvBvh7OpGVJ//vZ/ufCC6uyDwiAsmf3rh127UsuuazEY1566eV27V07d5Z4TAAAzncEIHCbmJiY3M8zMjK0Z8+efH0OHz6svXv32h3bsGFDoWNu2bKl0HsAQHkRHRVl1/7992VOr1m9Zo0yMzNz21WrVnXYHwC8oVrFs5+bpvT3vyUf86/d9gHIufcAgLIiKSnJrl2zVq0Sj1mrdm279vHjx0s8JgAA5zsCELhNSEhI7ucpKSmFzuqIj4+3azva1Pzch3+SFBoaWuI6AaC0JSefsmsfPXrU6TXZ2dk6efLsGtCh53yPBYCyopAf99x7D8/fAgCKLD093a4dEVHytDYqKtqunZqaUuIxAQA43xGAwG3ODTKio6MVFBRUYL+8Pyjm5BS+TkKNGjXs2vwFDIDyaMcO+yUSwlwIc/39/RUdfXbmSHJyssP+AOANh8/51mQYUvt6JV+u6tI8YxxKKrQrAHhN3j/48w/wL/GYgUGBdu28+2QCAICiIwCB2xw5ciT3c8MwdMUVJd+wt3379nbthISEEo8JAKVt5d9/24W/jRs3dnpN8+bN5e9/9hdpAmAAZdGWQ/YPAJ+7zlBQCZ4BhgZJT/awD0C2HmYOCAAAAIDiIQCB26xYscKufeeddyogICBfv9GjR6tr1665H4UJCwvTgAED7I6tX7/ejRUDgPsZhqEqVSrbhRfJycma/s03ue2rr+7mcIygoCANGmj//W/btu0eqBYASmZ2nh/N2teVvr7XUGx40ceqWlGaeZ+fLrafAKwf+fEPAAAAQDHlfzoNFNOSJUs0ZMiQ3HbTpk01ceJEffnll1q6dGnu8bS0NKWlpTkcq379+nrqqadUvXp1u+PnjgMAZZGfn5/emzhRNptNJ06c0JEjR3Ts2DEdO5agEydOKCoqSm3atNEVHTro92X2m6H7+/vrwgsv1KCBA1S3bl27c8uWLy/lVwIAzv2w3tSo6w1ViTh7rGsTQxtGGvrsD1Oz15tauUfKLGTF0yB/qX09qXcLQ3dcZigszwqqh05KP65nBgiAsm/xooWKiY0t0RiJrHgAoByaOXOmR/r269evmBUB9ghA4DZbtmzRsmXL1KFDh9xjrVq1UsOGDdWlSxeXx7n//vs1ePDgfMd3796t1atXu61eAPAkPz8/xcTEKCYmJt85wzBUs1bNfMdv6tdPN9/cP9/xnbt2afPmzR6rFQCK62Sa9PT3piYPsl+2qkKw9OBVhh68ylCOTdp3XEpMkZLSrDAjMtSaJVIzWvJ3MCd9xLemktMLPw8AZcXzzz7t7RIAwCsG3H6bR/r2y8gsZkWAPQIQuNW4cePUunVrhbqwwW9hzl025lyvvfaaww3TAaA82bdvn0v9cnJy9N5777MJJoAya/rfphpUlkb0KHgDdH8/qW6s9SG5vkn6WwtMzVzD7A8AAAAAxcceIHCrPXv26LHHHlNGRoZbx500aZJWrlzp1jEBwF22b9+uxMTEIoW0+/btd9onKytLb40bp927d5ewQgDwrDHzTD3xrak0N/yhXkqG9PgMUyN/JPwAAAAAUDLMAIHbrVy5UoMHD9Zjjz2mVq1alWiszMxMvfvuu5o6darb6gMAd3tqhLXkgZ+fn6KiIhUbE6vo6GjFVjr939hYxcbEKDo6RrGxMQoKCtLBgwcdjnngwAFNmvSB/tm0qZReBQCUzPtLTM3dYOq56wz1jjMUGli069Mype/Wmnppjqn9JzxVJQAAAIDzCQEIPGLr1q269957VaVKlXwb+TqTlJSkNWvWaPXq1Zo1a5bi4+M9VicAuJPNZlNi4nElJh532C84OFjZ2dn5ju/YuUNfff21tmzZqo0bN8o0+etnAOXL3kTpni9MPT7D1PUtDLWrK7WsaaheJaliqOR3egWsHJuUlCbtOiat329qxR5rs3P2+wBQXrz86v+8XQIAeMW77070dglAkRht27bl6QqA81LtOkUL5wDAV/xywdfeLgHnqQrBknl6mSvAG9Y9ftjbJQCAV9SoWsnbJQCAVzADBAAAAECpOEXwAQAAAKAUsQk6AAAAAAAAAADwOQQgAAAAAAAAAADA5xCAAAAAAAAAAAAAn0MAAgAAAAAAAAAAfA4BCAAAAAAAAAAA8DkEIAAAAAAAAAAAwOcQgAAAAAAAAAAAAJ9DAAIAAAAAAAAAAHwOAQgAAAAAAAAAAPA5BCAAAAAAAAAAAMDnEIAAAAAAAAAAAACfQwACAAAAAAAAAAB8DgEIAAAAAAAAAADwOQQgAAAAAAAAAADA5xCAAAAAAAAAAAAAn0MAAgAAAAAAAAAAfA4BCAAAAAAAAAAA8DkEIAAAAAAAAAAAwOcQgAAAAAAAAAAAAJ9DAAIAAAAAAAAAAHwOAQgAAAAAAAAAAPA5BCAAAAAAAAAAAMDnEIAAAAAAAAAAAACfQwACAAAAAAAAAAB8DgEIAAAAAAAAAADwOQQgAAAAAAAAAADA5xCAAAAAAAAAAAAAn0MAAgAAAAAAAAAAfA4BCAAAAAAAAAAA8DkEIAAAAAAAAAAAwOcQgAAAAAAAAAAAAJ9DAAIAAAAAAAAAAHwOAQgAAAAAAAAAAPA5BCAAAAAAAAAAAMDnEIAAAAAAAAAAAACfQwACAAAAAAAAAAB8DgEIAAAAAAAAAADwOQQgAAAAAAAAAADA5xCAAAAAAAAAAAAAn0MAAgAAAAAAAAAAfA4BCAAAAAAAAAAA8DkEIAAAAAAAAAAAwOcQgAAAAAAAAAAAAJ9DAAIAAAAAAAAAAHwOAQgAAAAAAAAAAPA5BCAAAAAAAAAAAMDnEIAAAAAAAAAAAACfQwACAAAAAAAAAAB8DgEIAAAAAAAAAADwOQQgAAAAAAAAAADA5xCAAAAAAAAAAAAAn0MAAgAAAAAAAAAAfA4BCAAAAAAAAAAA8DkEIAAAAAAAAAAAwOcQgAAAAAAAAAAAAJ9DAAIAAAAAAAAAAHwOAQgAAAAAAAAAAPA5BCAAAAAAAAAAAMDnEIAAAAAAAAAAAACfQwACAAAAAAAAAAB8jmGapuntIgAAAAAAAAAAANyJGSAAAAAAAAAAAMDnEIAAAAAAAAAAAACfQwACAAAAAAAAAAB8DgEIAAAAAAAAAADwOQQgAAAAAAAAAADA5xCAAAAAAAAAAAAAn0MAAgAAAAAAAAAAfA4BCAAAAAAAAAAA8DkEIAAAAAAAAAAAwOcQgAAAAAAAAAAAAJ9DAAIAAAAAAAAAAHwOAQgAAAAAAAAAAPA5BCAAAAAAAAAAAMDnEIAAAAAAAAAAAACfQwACAAAAAAAAAAB8DgEIAAAAAAAAAADwOQQgAAAAAAAAAADA5xCAAAAAAAAAAAAAn0MAAgAAAAAAAAAAfA4BCAAAAAAAAAAA8DkEIAAAAAAAAAAAwOcQgAAAAAAAAAAAAJ9DAAIAAAAAAAAAAHwOAQgAAAAAAAAAAPA5Ad4uAAAAAAAAAABgLz1LWvWvtGS7tCleOnhCMk3rXJWK0oVVpSsaSpfWkyqGlvx+exOl37ZLf+2Wdh6VUjOt48EBUt1KUts60pUNpcZVJcMo+f3OOJIsLd8pLdshbT8qJaVaxwP8pVrRUlxNqWNjqXkN61hRXs/bv0qr90oBftJVjaX7O0nRYe6r/d8E6fcd1nu246iUduY9C5TqxUrt6kodG0kNq7jvnpJ0NFlatlP6Y5e07bB0ItX6N2lSTbqvo/WeOWKa0q5jVu0r91i1Z2RZ50ICrXrb1pGuulCqE+Pe2kubYZpn/rcBAAAAAAAAAHhTYoo0+Xfpw9+lPQlSdk7hff0MqWpF6eY20sNdpfqVinYvm2mFHm8tkBZtlZLTHfcPDZLa1ZGGdZZuaGUFC8W14YD05i/SD+ul46lnw52CBAVITatJQztJAy+RwoMdj712n9R7orQv0f54+3rSjw9KVSKKX3eOTVq4RZqwSFqyTTqV4bh/WJB0ST1peFfpuuYle8/W7bfuO2ud9XVS0HsWFSpNu0fqcVH+c9k50tyNVjC0fOfZkKswFYKtkO2RrtLVzayvt/KGAAQAAAAAAAAAvMxmSlNXSE9/J+07XvTro0Klx6+R/tPNeujuzJ4E6YmZ1sP0zOyi3cvPkDo0lCbcIrWsVbRrT6RJz82SPl7m/AF8XoYhNasuvXGTdE2zgmeiZOVIXd+UfttR8BgPXCW9e1vR7nvG7mPSI9OluRukbFvRrvX3kzo1ksbfKl1co2jXJqZII390/T1rUFla9YwUec7MoM3xVu0Lt1ghTlEE+FkByPhbpEZuns3iaQQgAAAAAAAAAOBFKZnSQ9Okz/8s+sPpcxmGtdTTF3dLF0QV3m/+Jmnw59L+YgQt54oMlcbdLN15uWv9/zko3fqhtPFgye4bHCA93VMa0UMKzLMs1o4jUvMXrCXEClI7Rto82rWQ6AzTlOb9Iw3+TDp0smS1R4VJE2+Tbm3n2lJiGw5IAz+W1u93/R6GIf30sBUSmaY0Y7U0dIqUkFKi0lWpgvTRHVLvuJKNU5rYBB0AAAAAAAAAvCQlU7rlA+mT5SULP3T6Qf2vW6Xu463ZCgX5fq3U/4OShx+SlJQm3TdFen2+875r90lXjyt5+CFJGdnS6B+l4V9bMz7OlZZVePghWct8JaUV7X7TVko3vV/y8EOy9uv4v0+liUscL/ul0+/ZdW8XLfzQ6a+DhFPW5+8vlQZ9XPLwQ5KOnZJu/kD64s+Sj1VaCEAAAAAAAAAAwAtybNKQz6U5G9w77pmZFol5Hnov2Sbd+al0sogBgCOZ2dIzs6QpfxXeZ0+CdN07UnyS++5rM6VJS6WX5kpFXeKoKGsiLdoi3felFay4S1aO9J/p0szVhffZdVTq+17xlkML8JMaV5O+WyM99o0VGLlLRrZ0zxfSgs3uG9OTCEAAAAAAAAAAwAveXSx9/bdnxl6xx9rjw3b6Yf/hk9K9XxZ99oMrMrOlYV9Jm+Lzn8vKsUKXgyfcf1+bKY39SZqz3v1jS9aMj7s/d77ReXFk5UhDp0rbj+Q/l5ljhQz/JhRv7M4XWhuYPzDVvcHNGRnZ0h2fWF9TZR0BCAAAAAAAAACUsn3HpWdnFW02QlFNWSFtPGDd48U50rbDnrvXiVRrVoMtz+v58Ddr5omnZGRbQc+JVPeOa0p6/ofihxCuOHbKqj3v0mcf/S4tLsZ7ZhhSx0bS5DuscM0dS3YVJj5JemuB58Z3lwBvFwAAAAAAAAAA55sx86z9KJzx95NaXCB1bCxVj7SWtfpjl7Rit/OljdKzpL//lYICrA3WXVGpgtSpsXVPfz9pyyFpyXZpX6LzaxdstjZY73GR1U7NlF6Z59p9KwRLVzaS2taxNijfdcwKTrYfcR4SbT5k7aHyn26u3csVm+Nd3+uicoS1+fzFNSQ/P2nrIWnhFteW/PpxvfTbDut6STqZLr3+S/4gqSARIVKHBlLbulJUqNSylnR5fevfe6mLAUr1SOmqC6Vm1a32xgPWPjJHkp1fW5yQprQRgAAAAAAAAABAKTqe6log0aCy9NbN0jXNpOBznuTm2KTVe60ZF8t2Oh7DlPTRMudhS6C/dO+V0tPXSjWi7M8lppzdbyM1s/AxbKY18+BMADJ9lXTAydJXhiH1bSm9eoPUqIrVPiMlQ/pmlfTkt84fyH+0TLqvo+M+RTFpqePN1HV6r41hnaUne0jVKtqfS0iR3l4kjf3Z8Tg5Num9JVKnRtZr/25N4RvYn+FnSH3ipDE3So2rSkae83lnlDjSrLo0spd0YdWzxw6dlN78RRq3MP8m8+fy5Owldyl3S2ClpaXrn42btWzZn/pj+Qpt2rRFGRkeWIQNAAAAAAAAADxg1lrr4b4jzapLvz4mXd/CPvzQ6Vkh7epKcx6Srmte+BjBAVLzGtIP6xzfK8BPev0mafwt+cMPSYoJl57qIU0ZLIUGOh5rwWbpaLL1cPyrFY77StJDnaVpQ04/yM/zJD88WLrzcmnuQ/kDhrw2x0tr9zm/nytSMqTv1zru4+9nhVNv9i+4tthwadT10md35f/3y2v+Jinx9BJeU1c4DhYMwwpdpt1jhRZ5w48ztV3ZyPE9z1i4RbrsVSvcOnk6JKtWURp7o/TubdbXRmGuutC1e3hTuQlATNPUooVL9Nr/xunrr2fq558WaN68+fpq2gy98foErVixytslAgAAAAAAAIBTv2x2fD4kUPr0TqlWtON+kaHSh4OkptXynzMM6e4O1nJIu446HueWttKDV1kPzgtjnJ518GQPx2OlZ1lLV2VkS0t3OO7bvq706o3OA4I2daRxtziuz2Za4Ys7bD5k7dHiyB2XWu9Z3tAmr5vbSI90ddznRKr05y5rZtDf/zru276u9HJf5+/Zf7pJtWMc9znjeKq138nlY60luXJs1usacqX0UJeCr6lXyfnrKgvKTQAy/+eFWrz4N0mmWrdpqb59e6lv315q1SpOmZlZmv3jPK1bu8HbZQIAAAAAAACAQ84ecvdtae3r4IrqkdLsh6xrYsKtpaxqRUvPXye90V9af0DKdrAkUmig9EQPx+HCGYZhzdioEuG435p90j/xUpqD5bIkacS1zmeUnNGvtdSypuM+q/e6NpYza/Y6noURHCA9e53z8OOM/3aXKoY47vP3v9LOo9LJtML7GIY1E6dCsPN71q8kzRkmdWliLZnljGlK/xyUbnxPuuVDaetha3bJmBusj9oxVpgWFSpde7E0/xHra6+sKxd7gGRkZOrPP635Ujff0k9NmjTOPde6TUvVqn2Bfpg1V3//vUYt4pq7/IUHAAAAAAAAAKXt3wTH5/vEFby0UWHqV5Jm3m/tk5GSYS2/FBVmndvjZD+JRlWli6q7fq/oMGuT9G8cLMizJ8H5fSNCpG5NXb9vgJ90fZy0ykHI8W+ie/al2OPk36f5BdZ77qrYcOs9+3G943vuS3QcVlUKl65o6Pp9L75Amvew9NVKadSPzvcWkaz7z1xtLY312NVW4PVUD2loJ+nYKSuwqhbpWqhSFpSLAOTUqVPKOb1zS/36+aPPNm1aq0GD+oqOLmCBOgAAAAAAAAAoQzKyHZ+vX7noY/oZBe9FccLBjALJ2njcldkfZxhGwUtunevYKef3rRNjLfVVFM7ueypDSnfy3roiyUntFzqpoyANqzg+n5IhHT3luE/1qLPBlquC/K3lunpcJL36k/TBUinFycwcnV6W67lZ0pS/pFf6Sr3jrCXXyptysQRWVFSUgoKCJEm/zF+krKwsu/OGIcIPAAAAAAAAAD7B5mAWQFE52sRakrJyij6mo1kKOv281tl9nY1RrPvK+cwZm2l9lEROMWp35Z7ZTv4tgvydv6+FqRIhvXGTtORxa+aNqzM4thyS+n8g3fi+tCm+ePf2pnIRgPj7+6l7j64yDOmvv/7W2Fff0tSp07V8+V86eDDeLdOaAAAAAAAAAKA0hAU5Pv9PMR40p2RIq/6V5m2Uth85+5De2YyBrYelzCLMmjAlbTjguE/VCOezBfYkON7voiBr9zk+HxlqfTjaIDw53flSUJUqOD6/4UDRl9pav9/xeU/NrjiZLv21W/p5k/W6W9e29gb55P+sjcxdkWOTflgnXfaqtVm6sxkyZUm5WAJLktq1a6OYmGj9tvQP7dmzR1s2b9OWzduk0zNEOlxxidq3b8f+HwAAAAAAAADKtIaVrc3JCzNjlXTnZa4vTbVsh/TgNOvBvM20lpbq21KacIt1L0d2HbUekF/ZyLV7HTwhLd7muE/9ytbSWo6kZ0nfr5Xu7uDafdOyrIfwjtSrJMVWsEKfwycL7mMzrT0xHL1eZ/t7bD0krd0vtarlQuGn9yb5c7fjPg2KseyZMz/9Iw3/2grETFMKD5YGtJf+10+64zJrM/MxP0kf/GYFaM6cTJdenCNNXyV9MFDq6OLXjDeVixkgZzRoUF933jVATzz5qAYMuEUdO3ZQ9RrVdOLECc2Z/bPmzP7J2yUCAAAAAAAAgEPt6zk+/8tmae5G18baHC/1mySt2392maX0LOsh/5AvpKbVHc+IyMqRXpjjfF8SnQ4PXpxjzaIojGFI7etKjas6n9Uw5icpMcX5fSVp0lJp2xHHfS6pJ8WEWfd25Mu/pDUOZpO0qeN4iahsm/T0d64t42UzpednSWlO9t24tL7zsYpi1V7p1g+lbYfPzlZJybDCjgenWbM6Kp9ZFuuxoi2LtfWQ1GeitTxWWVeuApAzwsJCdWGTRup2dWcNHTpEvfv0lCStXPm3Tp4sJNoDAAAAAAAAgDKgx0WOz+fYpHu/kFbucdxvb6I04KPCZzvM2SAdT5WaONm0e+EW6clvrVkWjmoav1Ca/LvjsSoES1c0lAL9paubOu6744h056dWjYUxTem7NdaG3I6WnQr0tx7iG4Z0rZP392S6NGCyNTOiIA0qOw9Rft4k/XeG4+XDsnOksT9ZgYsj1Sq6PpvEVeMXFr5U1VcrrdAr22a9X23qSHMfkr642/WZKCdSpXEL3VqyR5SLACQ1NVVbNm/Tjh27CjzfqlWcDMOQaUoJCYmlXh8AAAAAAAAAuKpnc+uv7x05dFK6Zrz02nzpSLL9uaQ0adpKqdPrjmcy5Nisv9a/pa3je5mmNGGR1Hei9Pe/9g/1s3OsWSZ3fy79d6bzDcD7tpQiQqzPB13quK8k/bhe6vKmtGCzfQBjM62A56nvrJDnlJMlmtrUkZqeDnpuaGUt9+TI5kNS1zelT5ZbD/PPFRIo3dzG8fWmKY1fZM2+WfWv/Wby2TnWcmSDPpGeneV8A/Tece7dAyTbJq3eW/j5HJv00hzptg+tvUmybVaAdHt76fcnpOuau3YfZwFdWVAu9gBZvWqd5s9fqIoVI3Tf/YMVEWG/C826tRtkmqb8/AxVqhTrtToBAAAAAAAAwJnQQOn+jtZyUo6cSJWemCm99rMUV0uqHmktGbXhgLTvuGsbcYcEWkHEuIX5g5RzmaY0f5P061YrSGha3VoSafsR6Z+DjmeHnBHoLw3rfLZ97cVSs+rSJiebuq/dJ3Ufb+0bclENa5P4PQnW63Rlw20/Q3qgkxR0+mn3hVWth/jT/3Z83b7j0uDPrY29W1xghVINq0i3tpXuuVKa8Gv+cORcpinNXm+9b02rWff185N2HrVqT3fhPQsOkIZ2ct6vKPwMKcTJk3+bKc1YLc3eYP0bnZnxsvWQ9I+Tf68zwoNKXqunlYsApG27Vvrrr5VKSjqp9yZ+qJatWig2JkYZGZnatXu3tm/bKUm69NL2iohwEp0CAAAAAAAAgJc9erX00TJrU3Fnjp6yZkgUVWSodHkDqWa09FBn6fkfnYcmWTnWBu2ONmkvzK3trP0/zgj0l17qK/V7T3KW1dhMaeth66OoLqsv3dT6bNswpOeus4IJRwGGTocY+49bH2e8+Yv06Z3Sw12kF2Y7v39mtrUHy7r9Ra/9rg5WuOVOfoYVPq1yMAvkjPQsa7aIoxkjhbk+rljllapysQRWSEiI7rxroOrXr6uUlBT9/tsfmjVrjn766Rdt27pDAQEB6tKlk7r36ObtUgEAAAAAAADAqahQacItUoC/Z8Y3DGl4V6l+Jas9vKsVFHhK7Rhp7I35j/eNk25t77n7RoZKb90sheaZjXBxDemp7q5v7H2u46nWzJBb2kqta7ut1HwaVJZGXy8Vo0SnHupizUjxlItquH/miicYpunKRKmy49ixBB04cFCnklPk5+en6Ogo1atfV8HB5WC+DQAAAAAAAACcY8R30tifXVvOqij6tpSmDrGW2zpjyyHp6nH2sx3cIdcNta4AAAUzSURBVCJE+vFBqVPjgs+fSJWueqN4MyQcCQqQ3rtdurtDweczsqW7PrX2SymOCbdIXZpI3d6y9mRxp8hQad7D9qHUxMXSg9MKv6ZtHWnl067f489dUq93pYRTJas1r9hwafHjVshU1pWLGSDnqlQpVnFxzdXhikt12eXt1aRpY8IPAAAAAAAAAOXSS32kYVcVb6ZCYXpcJH38f/bhhyQ1qSZ9P9RaEstdIkKkz+8qPPyQpKgwae7DUlxN9903KED6343WElKFCQ6Q3h9obTJuFOP9PXLKmukw/V6piht3XogMlaYOzj8jx9/NT+svrS99dqcUE+6+MWPDpe+Glo/wQ+UxAAEAAAAAAAAAX+HvZy3h9MoN1ubfJRHgJw25wnpgHx1WcJ82daT5j1izCYoTCpyrXiVpzjBrtokzNSKt+17XvORhT6UK0qf/Jz3c1fnyURVDpGlDrD1QAou43Fi1itZ/r2wkLXxUaumGvToaVJZ+Hi71bF7wOUfvTfXIot/vuubS3Ies8KukmlWXfn3Mej/KC/9Ro0aN8nYRAAAAAAAAAHC+8jOkKxpKXZtKm+Olg0lFWxLLMKz9HibeLj3RXQoJdNy/cgXp1rbW/iMbDlgbYRdFaJD0f5dKUwZbMyRcFR4s9W8jVYuU1uyTktOLdt8AP+uB/rQhUucLXd87I9Bf6n6R1Kq2tQzXsRTn18RWkN7qb83WkKwZILe3s/5d1h+wNj4vitBA6d6O0hd3F743R9WK0ndrrU3v8/L3k17pKzWtXrT7StaMn9vaS6mZ0j/x1kb3RVEh2NpT5LO7pDoxRb+/N5W7PUAAAAAAAAAAwFdl26S5G6T3l0rLdkgnHYQEYUFS8wukwVdYG3ZXDCn6/f5NlCYtlaatkA6cKPzhuL+fFQL0jpPu71jy2RAJKdIny6RPlks7j1r7dRTEkBQdLnVram26fWXDki0VlZIpffO3NPl3ae1+KSUjf5+YcGnyIOmGVgWPseOI9MFv0vS/rfcs21ZwP38/axZJ35ZW7a6ERav+lW58X9qbePZYUID02NXSi71LvkzWPwet2r9dIx1KKrz2AH/pgkipX2vp/k5Soyolu6+3EIAAAAAAAAAAQBl08IS08l9pU7z1+ZknuZUjrCWN2taR6lcq+VJWOr1h+IYD1gP4nUet2QI6vY9G3UpSq1pW6FEhuOT3OleOzdqcfeUeadvhs4FPgL9UK1pqUVNqXdvae8KdTFPak2C93k3x0pFkyWZKNaKk29tb76sz6VnWe7Z6r7T9yNmZNMGBUoNK1vvVslbRlzY7fFL6aqU1ZliQFTp1aOj6jBdXpGZK6/dbte88ar3v/n7Wv2/DKlLLmlbtzmYTlXUEIAAAAAAAAAAAwOewCToAAAAAAAAAAPA5BCAAAAAAAAAAAMDnEIAAAAAAAAAAAACfQwACAAAAAAAAAAB8DgEIAAAAAAAAAADwOQQgAAAAAAAAAADA5xCAAAAAAAAAAAAAn0MAAgAAAAAAAAAAfA4BCAAAAAAAAAAA8DkEIAAAAAAAAAAAwOcQgAAAAAAAAAAAAJ9DAAIAAAAAAAAAAHwOAQgAAAAAAAAAAPA5BCAAAAAAAAAAAMDnEIAAAAAAAAAAAACfQwACAAAAAAAAAAB8DgEIAAAAAAAAAADwOQQgAAAAAAAAAADA5xCAAAAAAAAAAAAAn0MAAgAAAAAAAAAAfA4BCAAAAAAAAAAA8DkEIAAAAAAAAAAAwOcQgAAAAAAAAAAAAJ9DAAIAAAAAAAAAAHzO/wOxJaEG5DGrZgAAAABJRU5ErkJggg==;direction=south;fontFamily=Poppins;fontSize=10;" vertex="1" parent="1">
          <mxGeometry x="90" y="-750" width="105" height="140" as="geometry" />
        </mxCell>
      </root>
    </mxGraphModel>
  </diagram>
</mxfile>
